<?xml version="1.0" standalone="no"?>
<!DOCTYPE svg PUBLIC "-//W3C//DTD SVG 1.1//EN" "http://www.w3.org/Graphics/SVG/1.1/DTD/svg11.dtd">
<svg xmlns="http://www.w3.org/2000/svg">
<metadata>Copyright (C) 2014 by original authors @ fontello.com</metadata>
<defs>
<font id="webhostinghub-glyphs" horiz-adv-x="1024" >
<font-face font-family="webhostinghub-glyphs" font-weight="400" font-stretch="normal" units-per-em="1024" ascent="819" descent="-205" />
<missing-glyph horiz-adv-x="1024" />
<glyph glyph-name="dollar" unicode="&#xe000;" d="m820 580q-26 0-44 18t-18 45q0 34-37 63t-95 47-121 17-120-17-95-47-37-63 37-63 95-46 120-17q103 0 190-34t138-92 51-127q0-92-90-163t-226-85v-4q0-27-18-45t-45-18-45 18-18 45v4q-135 15-225 85t-91 163q0 26 19 45t44 18 45-18 19-45q0-33 37-63t95-46 120-17 121 17 95 46 37 63-37 63-95 47-121 17q-102 0-190 33t-138 92-51 127q0 93 91 164t225 85v4q0 25 18 44t45 19 45-19 18-44v-4q135-15 226-85t90-164q0-26-19-45t-45-18z" horiz-adv-x="1024" />
<glyph glyph-name="diamond" unicode="&#xe853;" d="m884 896l126-253h-252z m-316 0h253l-126-253z m-189-253l126 253 127-253h-253z m-190 253h253l-126-253z m-189-253l126 253 127-253h-253z m442-631l-442 568h253z m253 568l-190-568-189 568h379z m315 0l-442-568 190 568h252z" horiz-adv-x="1024" />
<glyph glyph-name="asterisk" unicode="&#xe002;" d="m975 417l-246-35 183-188q15-20 11-46t-24-41l-194-147q-19-14-43-10t-39 24l-110 230-109-230q-15-20-39-24t-44 10l-194 147q-19 15-23 41t10 46l183 188-246 35q-24 8-36 31t-4 46l78 233q8 25 31 36t48 4l194-98-38 227q0 25 18 44t45 19h252q26 0 45-19t18-44l-38-227 194 98q25 7 48-4t31-36l78-233q8-23-4-46t-36-31z" horiz-adv-x="1024" />
<glyph glyph-name="plus" unicode="&#xe003;" d="m947 327h-315v-315q0-27-19-45t-45-18h-126q-27 0-45 18t-18 45v315h-316q-26 0-45 19t-18 45v126q0 27 18 45t45 18h316v316q0 26 18 45t45 18h126q27 0 45-18t19-45v-316h315q27 0 45-18t18-45v-126q0-26-18-45t-45-19z" horiz-adv-x="1024" />
<glyph glyph-name="yen" unicode="&#xe004;" d="m867 855l-299-299v-102h127q26 0 45-19t18-45-18-44-45-19h-127v-63h127q26 0 45-18t18-45-18-45-45-18h-127v-126q0-27-18-45t-44-18-45 18-18 45v126h-126q-27 0-45 18t-18 45 18 45 45 18h126v63h-126q-27 0-45 19t-18 44 18 45 45 19h126v102l-299 299q-18 18-18 43t18 43 43 18 43-18l275-275 276 275q18 18 43 18t43-18 18-43-18-43z" horiz-adv-x="1024" />
<glyph glyph-name="copyright" unicode="&#xe005;" d="m505-51q-137 0-253 67t-184 184-68 254 68 253 184 184 253 68 254-68 184-184 67-253-67-254-184-184-254-67z m0 884q-102 0-190-51t-138-138-51-190 51-190 138-138 190-51 190 51 138 138 51 190-51 190-138 138-190 51z m219-300q-6-21-22-34t-39-14q-8 0-16 3t-13 6-11 10-9 10-7 10-5 9q-39 47-97 47-52 0-89-37t-37-89 37-90 89-37q58 0 97 48 2 2 9 13t13 17 15 11 24 6q22 0 39-13t22-34q1-4 2-11t-3-23-18-29q-37-50-89-80t-111-31q-104 0-178 74t-74 179 74 178 178 74q60 0 113-31t89-82q12-11 16-26t2-25z" horiz-adv-x="1024" />
<glyph glyph-name="pilcrow" unicode="&#xe006;" d="m947 833h-63v-821q0-26-19-45t-45-18-44 18-18 45v821h-253v-821q0-26-19-45t-44-18-45 18-18 45v315h-63q-86 0-159 43t-115 115-42 158 42 159 115 114 159 43h631q26 0 45-18t18-45-18-45-45-18z" horiz-adv-x="1024" />
<glyph glyph-name="multiply" unicode="&#xe007;" d="m692 454l299-300q19-20 19-47t-19-46l-93-93q-19-19-47-19t-46 19l-300 299-300-299q-19-19-46-19t-47 19l-92 93q-20 19-20 46t20 47l299 300-299 299q-20 19-20 47t20 46l92 93q19 19 47 19t46-19l300-300 300 300q19 19 46 19t47-19l93-93q19-19 19-46t-19-47z" horiz-adv-x="1024" />
<glyph glyph-name="divide" unicode="&#xe008;" d="m947 327h-884q-26 0-45 19t-18 45v126q0 27 19 45t44 18h884q27 0 45-18t18-45v-126q0-26-18-45t-45-19z m-379 379h-126q-27 0-45 19t-18 45v126q0 26 19 45t44 18h126q27 0 45-18t19-45v-126q0-26-19-45t-45-19z m-126-505h126q27 0 45-18t19-45v-126q0-27-19-45t-45-18h-126q-27 0-45 18t-18 45v126q0 27 19 45t44 18z" horiz-adv-x="1024" />
<glyph glyph-name="pipe" unicode="&#xe009;" d="m758-51q-51 0-99 20t-93 60-80 78-76 94q-16 23-41 49t-64 61-87 57-92 23h-94q-13 0-23 9t-9 22 9 22 23 10h94q37 0 55-1t52-2 54-7 49-14 50-22 45-34 43-47q24-33 78-79t80-47q63 0 63 63v127q0 25 18 44t45 19h189q26 0 45-19t18-44v-190q0-104-74-178t-178-74z m126 757q0-35 9-82 1-4 18-39t24-68h-57q-9 41-26 63-22 24-27 47t-4 79q0 79 37 135t89 55q-37-15-50-63t-13-127z m-189 51q0-38 8-88 50-55 54-152h-62q0 63-9 75-54 61-54 165 0 84 36 143t90 59q15 0 31-7-41-18-68-71t-26-124z" horiz-adv-x="1024" />
<glyph glyph-name="ring" unicode="&#xe00a;" d="m947 391q0-90-35-172t-94-141-141-94-172-35-171 35-142 94-94 141-35 172q0 160 102 282t257 152l-106 71 126 63h126l127-63-107-71q155-30 257-152t102-282z m-442 315q-86 0-158-42t-115-115-43-158 43-159 115-115 158-42 159 42 114 115 43 159-43 158-114 115-159 42z" horiz-adv-x="1024" />
<glyph glyph-name="dagger" unicode="&#xe00b;" d="m1000 9l-50-51q-10-9-24-9t-25 9l-324 325-76-77q-6-5-14-5t-12 5l-28 27q-5 6-5 14t5 13l29 29-223 196q-74 74-159 227t-94 247q11-13 27-29t37-36 31-30q72-72 152-122t97-32l1 1t0 1l278-277 12 14q6 5 14 5t14-5l27-28q6-5 6-13t-6-13l-13-13 323-324q10-11 10-25t-10-24z" horiz-adv-x="1024" />
<glyph glyph-name="tie" unicode="&#xe00c;" d="m693 899l-123-141 120-563q6-15 8-22t0-14-8-15l-154-185q-10-10-25-10t-27 10l-153 185q-9 13-9 21t9 30l120 564-121 140q-13 12-7 36t28 24h321q22 0 27-24t-6-36z" horiz-adv-x="1024" />
<glyph glyph-name="euro" unicode="&#xe00d;" d="m885 580q-27 0-45 18t-19 45q-21 82-93 136t-160 54q-87 0-155-54t-89-136h181q27 0 45-19t18-44-18-45-45-18h-189v-126h189q27 0 45-19t18-45-18-44-45-19h-181q21-83 89-136t155-53q88 0 160 54t93 135q0 26 19 45t45 18 44-18 18-45q0-22-15-40-34-120-135-198t-229-77q-140 0-245 90t-128 225h-69q-26 0-45 19t-18 44 18 45 45 19h63v126h-63q-26 0-45 18t-18 45 18 44 45 19h69q23 135 128 226t245 90q129 0 229-78t135-197q15-18 15-41 0-26-18-45t-44-18z" horiz-adv-x="1024" />
<glyph glyph-name="home" unicode="&#xe00e;" d="m991 411q-19-19-46-19t-46 18l-15 15v-413q0-26-18-45t-45-18h-189v284q0 13-10 22t-22 9h-190q-12 0-22-9t-9-22v-284h-190q-26 0-44 18t-19 45v413l-14-15q-19-18-46-18t-47 19-19 46 19 46l438 438q20 20 48 19 29 1 48-19l439-438q18-19 18-46t-19-46z" horiz-adv-x="1024" />
<glyph glyph-name="capslock" unicode="&#xe00f;" d="m921 453h-164v-189q0-26-18-45t-44-18h-379q-26 0-45 18t-18 45v189h-162q-12 0-20 13t-7 30 13 30l384 414q18 19 44 19t46-19l382-414q12-12 14-30t-7-30-19-13z m-605-314h379q25 0 44-19t18-44v-64q0-26-18-45t-44-18h-379q-26 0-45 18t-18 45v64q0 25 18 44t45 19z" horiz-adv-x="1024" />
<glyph glyph-name="gradient" unicode="&#xe010;" d="m884-51h-758q-52 0-89 37t-37 89v758q0 52 37 89t89 37h758q52 0 89-37t37-89v-758q0-52-37-89t-89-37z m-189 252h-63v63h63v63h-63v64h63v63h-63v63h63v63h-63v63h63v63h-63v64h63v63h-63v-63h-64v63h-63v-63h-63v63h-284q-13 0-22-10t-10-22v-694q0-13 10-23t22-9h221v63h63v-63h63v63h63v-63h64v63h63v63z m-127-63v63h64v-63h-64z m0 189h64v-63h-64v63z m0 127h64v-63h-64v63z m0 126h64v-63h-64v63z m0 126h64v-63h-64v63z m-63 0v64h63v-64h-63z m-126 0v64h63v-64h-63z m126-505v-63h-63v63h63z m0 63h63v-63h-63v63z m0 127h63v-64h-63v64z m0 126h63v-63h-63v63z m0 126h63v-63h-63v63z m-63 0v63h63v-63h-63z m63-126h-63v63h63v-63z m0-126h-63v63h63v-63z m0-127h-63v63h63v-63z m-126-63v63h63v-63h-63z m0 126v64h63v-64h-63z m0 127v63h63v-63h-63z m0 126v63h63v-63h-63z" horiz-adv-x="1024" />
<glyph glyph-name="minus" unicode="&#xe011;" d="m1010 517v-126q0-27-18-45t-45-19h-884q-26 0-44 19t-19 45v126q0 26 18 44t45 19h884q26 0 45-19t18-44z" horiz-adv-x="1024" />
<glyph glyph-name="infinity" unicode="&#xe012;" d="m758 201q-96 0-253 151-157-151-252-151-105 0-179 74t-74 179 74 178 179 74q96 0 252-151 157 151 253 151 104 0 178-74t74-178-74-179-178-74z m-505 379q-57 0-92-36t-35-90 35-90 92-37q21 0 45 13t44 32 35 37 25 32l8 13q-3 5-8 13t-25 31-36 38-42 30-46 14z m505 0q-22 0-46-13t-44-31-35-38-24-31l-9-13q3-5 9-14t24-31 36-38 42-30 47-14q56 0 91 37t35 90-35 90-91 36z" horiz-adv-x="1024" />
<glyph glyph-name="intersection" unicode="&#xe013;" d="m947 580h-379v-63h253 0 2q33-1 42-10l135-93q10-10 10-23t-10-24l-135-93q-10-10-44-10h-253v-252q0-26-18-45t-45-18-45 18-18 45v252h-379q-26 0-44 19t-19 44v127q0 25 19 44t44 19h379v63h-253q-34 0-44 10l-135 93q-10 10-10 23t10 24l135 93q9 10 42 10h2 0 253v63q0 25 18 44t45 19 45-19 18-44v-63h379q26 0 45-19t18-44v-127q0-26-18-45t-45-18z" horiz-adv-x="1024" />
<glyph glyph-name="image" unicode="&#xe014;" d="m0-51v1011h1010v-1011h-1010z m947 948h-884v-759h884v759z m-694-63q52 0 89-37t37-90-37-89-89-37-90 37-37 88v1q0 53 37 90t90 37z m109-397l235-236h-471v92l144 144q18 18 46 18t46-18z m319 189q18 19 46 19t46-19l111-111v-314h-201q0 1-2 4t-2 4l-208 207z" horiz-adv-x="1024" />
<glyph glyph-name="fork" unicode="&#xe015;" d="m977-18q-25-26-57-32t-70 9-72 54l-286 335q-63-29-134-17t-124 65l-218 219q-16 14-16 37t16 38 38 15 37-15l231-231q37 9 72 29l-252 252q-16 16-16 38t16 38 38 16 37-16l253-252q20 34 29 71l-231 231q-15 16-15 38t15 38 37 15 38-16l220-217q52-52 64-124t-17-135l335-285q38-33 54-71t10-70-32-57z" horiz-adv-x="1024" />
<glyph glyph-name="bell" unicode="&#xe016;" d="m947 12h-333q-17-29-46-46t-63-17-63 17-45 46h-334q-26 0-45 19t-18 44v63q52 0 89 74t37 179v126q0 140 91 245t225 128v6q0 26 19 45t44 18 45-18 18-45v-6q135-23 226-128t90-245v-126q0-105 37-179t89-74v-63q0-26-18-44t-45-19z" horiz-adv-x="1024" />
<glyph glyph-name="chair" unicode="&#xe017;" d="m916 12q-40 0-68 27t-27 68v315q0 42 44 100t82 58q19 0 32-17t20-43 8-51 3-47v-315q0-40-27-68t-67-27z m-221 442h-379q-27 0-45 18t-18 45l-64 253q0 26 19 44t45 19h505q25 0 44-19t19-44l-63-253q0-26-19-45t-44-18z m-506-347q0-40-27-68t-67-27-67 27-28 68v315q0 23 2 47t9 51 20 43 32 17q38 0 82-58t44-100v-315z m127 284h379q25 0 44-19t19-44-19-45-44-19h-379q-27 0-45 19t-18 45 18 44 45 19z m0-190h379q25 0 44-18t19-45v-63q0-26-19-44t-44-19h-379q-27 0-45 19t-18 44v63q0 27 18 45t45 18z" horiz-adv-x="1024" />
<glyph glyph-name="rectangle" unicode="&#xe018;" d="m0-51v1010h1010v-1010h-1010z m947 947h-884v-884h884v884z" horiz-adv-x="1024" />
<glyph glyph-name="triangle" unicode="&#xe019;" d="m979-51h-32v31q0 13-9 22t-22 10-23-10-9-22v-31h-63v94q0 13-9 23t-23 9-22-9-9-23v-94h-63v31q0 13-10 22t-22 10-22-10-9-22v-31h-64v94q0 13-9 23t-22 9-22-9-10-23v-94h-63v31q0 13-9 22t-23 10-22-10-9-22v-31h-63v94q0 13-10 23t-22 9-22-9-9-23v-94h-64v31q0 13-9 22t-22 10-22-10-10-22v-31h-94q-13 0-23 9t-9 22l979 979q13 0 22-9t9-23v-947q0-13-9-22t-22-9z m-158 536q0 13-9 22t-23 10l-347-347q0-13 9-23t23-9h315q13 0 23 9t9 23v315z" horiz-adv-x="1024" />
<glyph glyph-name="yinyang" unicode="&#xe01a;" d="m505-51q-102 0-196 40t-162 107-107 161-40 197 40 197 107 160 162 108 196 41 197-41 161-108 107-160 40-197-40-197-107-161-161-107-197-40z m0 757q-25 0-44-18t-19-44 18-45 45-19 45 19 18 45-18 44-45 18z m0-252q-79 0-134 56t-55 134 55 133 134 56q-102 0-190-51t-138-137-51-191 51-190 138-138 190-51q79 0 134 56t56 134-56 134-134 55z m1-253q-26 0-45 19t-19 45 19 44 45 18 44-18 18-44-18-45-44-19z" horiz-adv-x="1024" />
<glyph glyph-name="smile" unicode="&#xe01b;" d="m505-51q-102 0-196 40t-162 107-107 161-40 197 40 196 107 161 162 108 196 40 197-40 161-108 107-161 40-196-40-197-107-161-161-107-197-40z m-221 757q-39 0-67-37t-28-89 28-89 67-37 67 37 28 89-28 89-67 37z m442 0q-39 0-67-37t-27-89 27-89 67-37 67 37 28 89-28 89-67 37z m63-379h-568q-13 0-22-9t-10-22q40-112 116-166t199-55 200 55 117 166q0 13-9 22t-23 9z m-285-189q-164 0-220 112 0 6 6 10t13 4h404q8 0 14-4t5-10q-56-112-222-112z" horiz-adv-x="1024" />
<glyph glyph-name="compass" unicode="&#xe01c;" d="m505-51q-102 0-196 40t-162 107-107 161-40 197 40 196 107 161 162 108 196 40 197-40 161-108 107-161 40-196-40-197-107-161-161-107-197-40z m0 884q-102 0-190-51t-138-137-51-191 51-190 138-138 190-51 190 51 138 138 51 190-51 191-138 137-190 51z m0-442q-34 0-53 29l-231 128 284-31q35 0 53-30l231-128z" horiz-adv-x="1024" />
<glyph glyph-name="checkmark" unicode="&#xe01d;" d="m993 638l-611-610q-18-17-52-16-32 1-49 16l-263 264q-18 18-18 43t18 44l88 88q17 17 43 17t43-17l139-140 487 486q18 18 43 18t44-18l88-87q17-19 17-44t-17-44z" horiz-adv-x="1024" />
<glyph glyph-name="wallet" unicode="&#xe01e;" d="m884 12h-568q-53 0-90 37t-37 89h-63q-52 0-89 37t-37 89v506q0 52 37 88t89 37h758q52 0 89-37t37-88v-632q0-52-37-89t-89-37z m-474 252q95 0 95 95t-95 95-94-95 94-95z m442 506h-638q-36 0-62-25t-26-60v-337q0-28 18-51t45-29v312q0 52 37 89t90 37h536q13 0 23 9t9 22-9 23-23 10z" horiz-adv-x="1024" />
<glyph glyph-name="kimai" unicode="&#xe01f;" d="m505-51q-102 0-196 40t-162 107-107 161-40 197 40 196 107 161 162 108 196 40 197-40 161-108 107-161 40-196-40-197-107-161-161-107-197-40z m0 947q-90 0-171-35t-142-94-94-142-35-171 35-172 94-141 142-94 171-35 172 35 141 94 94 141 35 172-35 171-94 142-141 94-172 35z m253-442l117-82q-24-108-102-186t-186-102l-82 117-82-117q-107 24-186 102t-102 186l118 82-118 82q24 107 102 185t186 103l82-118 82 118q108-25 186-103t102-185z m-379 173v-347l284 174z" horiz-adv-x="1024" />
<glyph glyph-name="livejournal" unicode="&#xe020;" d="m600 43l-573 572q-22 21-26 62t10 86 46 76l63 63q31 30 76 46t86 10 62-26l572-573 94-410z m-368 636q-29-30-39-75t4-74q0-1 0-3l-1-2 336-336q19 22 29 57t11 63-4 50l-327 328z m89 197q-24 26-78 19t-89-42l-48-48q-35-35-42-89t19-78l45-46q9 74 56 120l63 63q46 47 120 55z m125-125q-24 24-77 18t-89-42l-8-8 328-328q22-4 50-4t63 11 57 29z m414-416l-54 55q-35-27-84-44t-90-17q0-42-18-92t-44-85l54-53 150-29q15 45 42 72t73 43z" horiz-adv-x="1024" />
<glyph glyph-name="livejournalalt" unicode="&#xe021;" d="m780 141q-96-95-209-144t-224-48q-80 0-135 16t-88 51-47 78-14 107q0 90 36 177t100 164l-181 180q-23 22-17 72t38 82l44 43q32 33 82 39t72-17l119-120q46 45 86 73t105 46 148 19q66 0 121-21t90-54 59-75 35-84 10-82q0-122-61-259t-169-243z m-85 755q-160 0-320-94l73-73q97 41 184 41 91 0 140-61t49-161q0-33-2-55t-7-55-20-58-37-56-60-60q25 45 44 128t19 156q0 62-35 110t-91 48q-64 0-134-28l131-131 66-283-283 65-160 161q-59-70-92-145t-34-144q0-37 11-69t35-61 69-43 106-16q97 0 202 44t188 126q93 91 152 223t58 238q0 29-10 62t-31 67-50 62-72 44-89 18z" horiz-adv-x="1024" />
<glyph glyph-name="tagged" unicode="&#xe022;" d="m884 580h-252l-127-505h-316l127 505h-190l-126 126 126 127h884z" horiz-adv-x="1024" />
<glyph glyph-name="temple" unicode="&#xe023;" d="m884 243v-231q0-27-18-45t-45-18h-253v126q0 26-18 45t-44 18-45-18-19-45v-126h-253q-25 0-44 18t-19 45v231q-55 46-90 90t-36 62q0 52 32 59 10-4 66-26t91-34v123q-56 34-91 72t-35 58q0 59 32 59 14-5 56-23t75-29 58-11q27 0 54 19t53 51 44 61 40 68q-33 17-33 54 0 26 19 45t45 18 44-18 18-45q0-37-32-54 21-40 39-68t44-61 53-51 54-19q25 0 58 11t75 29 57 23q31 0 31-59 0-21-35-58t-91-72v-123q35 12 91 34t67 26q31-7 31-59 0-18-35-62t-91-90z" horiz-adv-x="1024" />
<glyph glyph-name="mayanpyramid" unicode="&#xe024;" d="m979 75h-284l-127 758h95q13 0 22-10t10-22v-63q0-13-10-22t-22-10h63q13 0 22-9t10-22v-63q0-13-10-23t-22-9h63q13 0 23-9t9-23v-63q0-13-9-22t-23-9h63q13 0 23-9t9-23v-63q0-13-9-22t-23-10h64q12 0 22-8t9-23v-63q0-13-9-22t-22-10h63q13 0 22-9t9-22v-63q0-13-9-23t-22-9z m-600 0l63 758h126l64-758h-253z m-347 0q-13 0-23 9t-9 23v63q0 12 9 22t23 9h63q-13 0-23 10t-9 22v63q0 13 9 22t23 9h63q-13 0-22 10t-10 22v63q0 13 10 22t22 10h63q-13 0-22 9t-10 22v63q0 13 10 23t22 9h63q-13 0-22 9t-9 23v63q0 13 9 22t22 9h63q-13 0-22 10t-9 22v63q0 13 9 22t22 10h95l-126-758h-284z" horiz-adv-x="1024" />
<glyph glyph-name="egyptpyramid" unicode="&#xe025;" d="m821 391l-158 221 95 94 252-315h-189z m-821-253l474 632 473-632h-947z" horiz-adv-x="1024" />
<glyph glyph-name="tampermonkey" unicode="&#xe026;" d="m884-51h-758q-52 0-89 37t-37 89v758q0 52 37 89t89 37h758q52 0 89-37t37-89v-758q0-52-37-89t-89-37z m-631 442q-79 0-135-56t-55-134 55-134 135-55 134 55 55 134-55 134-134 56z m505 0q-79 0-134-56t-56-134 56-134 134-55 134 55 55 134-55 134-134 56z" horiz-adv-x="1024" />
<glyph glyph-name="pushbullet" unicode="&#xe027;" d="m632 75q-27 0-45 18t-19 45v632q0 26 19 44t45 19q102 0 189-51t138-138 51-190-51-190-138-138-189-51z m-190 0h-379q-26 0-44 19t-19 44v632q0 26 19 44t44 19h379q27 0 45-19t18-44v-632q0-27-18-45t-45-18z" horiz-adv-x="1024" />
<glyph glyph-name="currents" unicode="&#xe028;" d="m505-51q-102 0-196 40t-162 107-107 161-40 197 40 196 107 161 162 108 196 40 197-40 161-108 107-161 40-196-40-197-107-161-161-107-197-40z m-210 116q98-53 210-53 121 0 222 60t160 161q-47-46-113-70t-142-25q-149 0-232 84t-84 232q0 67 44 120-80-38-125-110t-46-168q0-58 28-121t78-110z m210 262q52 0 89 37t38 90-38 89-89 37-89-37-37-89 37-90 89-37z m-382 348q48 45 114 70t142 25q148 0 232-84t84-232q0-67-45-121 80 39 125 110t46 169q0 58-28 120t-78 111q-97 53-210 53-120 0-222-60t-160-161z" horiz-adv-x="1024" />
<glyph glyph-name="communitysmall" unicode="&#xe029;" d="m505-51q-102 0-196 40t-162 107-107 161-40 197 40 196 107 161 162 108 196 40 197-40 161-108 107-161 40-196-40-197-107-161-161-107-197-40z m0 947q-90 0-171-35t-142-94-94-142-35-171 35-172 94-141 142-94 171-35 172 35 141 94 94 141 35 172-35 171-94 142-141 94-172 35z m190-695q-53 0-90 37t-37 89 37 90 90 37 89-37 37-90-37-89-89-37z m-190 316q-52 0-89 37t-37 89 37 89 89 38 89-38 38-89-38-89-89-37z m-63-190q0-52-37-89t-89-37-90 37-37 89 37 90 90 37 89-37 37-90z" horiz-adv-x="1024" />
<glyph glyph-name="squaregithub" unicode="&#xe02a;" d="m884-51h-255q3 12 3 24 0 84-20 169t-54 125q129 11 196 76t67 167q0 90-63 138v90q0 10-11 21t-21 11q-12 0-117-70-47 6-104 6t-103-6q-106 70-118 70-10 0-21-11t-10-21q0-9-2-44t-3-50q-59-48-59-134 0-103 68-167t195-76q-5-7-14-20-42-46-122-46-16 0-32 13t-31 32-32 37-41 32-54 12q0-7 10-20t26-32 27-42q26-51 54-73t73-22q47 0 86 14-23-87-23-179 0-12 2-24h-255q-52 0-89 37t-37 89v758q0 52 37 89t89 37h758q52 0 89-37t37-89v-758q0-52-37-89t-89-37z" horiz-adv-x="1024" />
<glyph glyph-name="projectfork" unicode="&#xe02b;" d="m821 706q-63 0-102 52-178-40-305-200t-155-380q26-16 41-44t16-59q0-52-37-89t-90-37-89 37-37 89q0 34 17 63t46 45v713q0 25 19 44t44 19 45-19 19-44v-351q78 135 196 223t256 116q15 34 46 54t70 21q52 0 89-37t37-89-37-90-89-37z m-631-568q-26 0-45-18t-19-45 19-44 45-19 44 19 19 44-19 45-44 18z m631 758q-26 0-45-19t-18-45 18-44 45-18 45 18 18 45-18 44-45 19z" horiz-adv-x="1024" />
<glyph glyph-name="projectmerge" unicode="&#xe02c;" d="m821-51q-39 0-70 20t-46 55q-139 27-256 115t-196 223v-179q28-16 45-45t18-63q0-52-37-89t-90-37-89 37-37 89q0 34 17 63t46 45v541q-28 17-46 46t-17 63q0 52 37 89t89 37 90-37 37-89q0-33-16-61t-41-44q28-220 155-379t305-199q39 51 102 51 52 0 89-37t37-89-37-89-89-37z m-632 63q26 0 45 18t19 44-19 45-45 19-44-19-19-45 19-44 44-18z m0 884q-26 0-44-18t-19-45 19-45 44-18 45 18 19 45-19 45-45 18z m631-758q-26 0-44-18t-18-45 18-45 44-18 45 19 19 44-19 45-45 18z" horiz-adv-x="1024" />
<glyph glyph-name="projectcompare" unicode="&#xe02d;" d="m884 724v-397q0-85-42-158t-115-115-159-42v-63l-189 126 189 126v-63q79 0 134 55t56 134v397q-29 17-46 46t-17 63q0 52 37 89t89 37 89-37 37-89q0-35-17-63t-46-46z m-63 172q-27 0-45-18t-18-45 18-45 44-18 45 18 19 45-18 45-45 18z m-379-126q-79 0-134-56t-55-134v-397q28-16 45-45t18-63q0-52-37-89t-90-37-89 37-37 89q0 34 17 63t46 45v397q0 86 43 158t115 115 158 43v63l190-126-190-127v64z m-252-632q-26 0-45-18t-19-45 19-45 44-18 45 19 19 44-19 45-44 18z" horiz-adv-x="1024" />
<glyph glyph-name="history" unicode="&#xe02e;" d="m316 264v32 0l129 175q5 19 22 33t38 13q21 0 38-12t22-33l193-239v-32h-32v0 0l-222 179-157-116v0h-31z m189-315q-102 0-195 39t-162 109l90 88q52-52 121-81t146-29q103 0 190 51t138 138 51 190-51 190-138 138-190 51q-93 0-173-43t-133-114l54-54q0-17-13-30t-29-12h-169q-17 0-30 12t-12 30v168q0 17 12 29t30 13l68-66q70 89 173 141t222 52q103 0 197-40t161-108 107-161 40-196-40-197-107-161-161-107-197-40z" horiz-adv-x="1024" />
<glyph glyph-name="notebook" unicode="&#xe02f;" d="m821 233v-63q0-13 9-23t22-9 23-9 9-22-9-23-23-9h-63-284v-126l-95 63-94-63v126h-127q-25 0-44 18t-19 45v758q0 25 19 44t44 19h632q27 0 45-19t18-44v-632h-32q-12 0-22-9t-9-22z m-632 0v-63q0-13 10-23t22-9h95v63h189v-63h221q13 0 22 9t10 23v63q0 13-10 22t-22 9h-505q-13 0-22-9t-10-22z m632 631q0 13-9 22t-23 10h-505q-13 0-22-10t-9-22v-505q0-13 9-22t22-10h505q13 0 23 10t9 22v505z m-158-284h-253q-12 0-22 9t-9 23 9 22 22 9h253q13 0 22-9t10-22-10-23-22-9z m0 126h-253q-12 0-22 10t-9 22 9 22 22 10h253q13 0 22-10t10-22-10-22-22-10z" horiz-adv-x="1024" />
<glyph glyph-name="issue" unicode="&#xe030;" d="m505-51q-102 0-196 40t-162 107-107 161-40 197 40 196 107 161 162 108 196 40 197-40 161-108 107-161 40-196-40-197-107-161-161-107-197-40z m0 884q-102 0-190-51t-138-138-51-190 51-190 138-138 190-51 190 51 138 138 51 190-51 190-138 138-190 51z m32-695h-63q-13 0-23 9t-9 23v63q0 13 9 22t23 9h63q13 0 22-9t9-22v-63q0-13-9-23t-22-9z m0 189h-63q-13 0-23 10t-9 22v379q0 13 9 22t23 10h63q13 0 22-10t9-22v-379q0-13-9-22t-22-10z" horiz-adv-x="1024" />
<glyph glyph-name="issueclosed" unicode="&#xe031;" d="m632 580v63h63l63-63 189 190h63v-64l-252-252z m-95-253h-63q-13 0-23 10t-9 22v379q0 13 9 22t23 10h63q13 0 22-10t9-22v-379q0-13-9-22t-22-10z m31-157q0-13-9-23t-22-9h-63q-13 0-23 9t-9 23v63q0 13 9 22t23 9h63q13 0 22-9t9-22v-63z m-63 663q-102 0-190-51t-138-138-51-190 51-190 138-138 190-51 190 51 138 138 51 190q0 6-1 23l109 110q18-67 18-133 0-103-40-197t-107-161-161-107-197-40-196 40-162 107-107 161-40 197 40 196 107 161 162 108 196 40q108 0 203-43t166-118l-89-90q-53 59-125 92t-155 33z" horiz-adv-x="1024" />
<glyph glyph-name="issuereopened" unicode="&#xe032;" d="m947 391q-26 0-45 18t-18 45q0 102-51 190t-138 138-190 51q-139 0-246-91l57-56q0-18-13-30t-29-13h-169q-17 0-30 13t-12 30v167q0 18 12 30t30 13l65-65q68 61 154 94t181 34q103 0 197-40t161-108 107-161 40-196q0-27-18-45t-45-18z m-410-64h-63q-13 0-23 10t-9 22v379q0 13 9 22t23 10h63q13 0 22-10t9-22v-379q0-13-9-22t-22-10z m31-157q0-13-9-23t-22-9h-63q-13 0-23 9t-9 23v63q0 13 9 22t23 9h63q13 0 22-9t9-22v-63z m-442 284q0-103 51-190t138-138 190-51q139 0 246 91l-56 56q0 18 12 30t29 12h170q17 0 29-12t12-30v-168q0-18-12-30t-29-12l-65 65q-68-61-155-95t-181-33q-102 0-196 40t-162 107-107 161-40 197q0 25 19 44t44 19 45-19 18-44z" horiz-adv-x="1024" />
<glyph glyph-name="rubyalt" unicode="&#xe033;" d="m505 12l-505 568 253 316h505l252-316z m221 821h-442l-189-253 410-473 411 473z m-221-632v569h188l128-190z" horiz-adv-x="1024" />
<glyph glyph-name="lighton" unicode="&#xe034;" d="m600 12h-316q-43 0-69 45t-26 97q0 5 2 14t15 41 38 71 75 102 123 135 134 123 103 75 70 38 43 14l13 3q52 0 97-26t45-69v-316q0-50-35-112t-86-114-114-86-112-35z m185 659q-20 20-107-39t-190-161-160-190-39-107 107 38 189 162 161 190 39 107z m-180 42q-19-11-40-5t-31 23l-54 154q-10 18-5 37t24 31 40 4 32-23l54-155q10-16 4-36t-24-30z m-309-118l-156 155q-14 15-14 34t15 34 34 15 34-14l155-156q14-14 14-34t-14-35-34-14-34 15z m-50-241q-10-19-30-25t-36 5l-155 54q-18 11-24 32t5 40 31 24 37-6l154-53q18-11 23-31t-5-40z" horiz-adv-x="1024" />
<glyph glyph-name="lightoff" unicode="&#xe035;" d="m996-37q-14-14-34-14t-35 13l-913 915q-14 14-14 34t14 35 34 14 35-15l914-914q13-13 13-34t-14-34z m-337 489q71 81 107 142t19 77-77-19-142-107l-46 46q55 49 105 86t81 54 56 27 33 11l11 1q52 0 97-26t45-69v-316q0-63-53-143z m-244-59q-71-81-106-142t-20-77 77 19 141 108l237-237q-80-52-143-52h-317q-43 0-69 45t-26 97q0 4 2 11t11 32 26 56 54 80 87 106z" horiz-adv-x="1024" />
<glyph glyph-name="bellalt" unicode="&#xe036;" d="m347-51l-63 63q0 53-46 150t-112 163l-21 21q-88 88-103 210t47 225q-21 13-35 35t-14 48q0 39 28 67t67 28q26 0 49-14t34-36q102 61 225 46t209-102l21-21q66-65 164-111t150-46l63-63q0-128-55-250t-145-213-213-145-250-55z m554 616q-31 29-103 2t-160-96q26-15 41-40t16-56q0-46-32-79t-79-32q-31 0-56 16t-40 41q-70-87-96-160t2-103q36-36 136 12t205 154 154 205 12 136z" horiz-adv-x="1024" />
<glyph glyph-name="versions" unicode="&#xe037;" d="m947-51h-505q-27 0-45 18t-18 45v884q0 26 18 45t45 18h505q27 0 45-18t18-45v-884q0-27-18-45t-45-18z m0 947h-505v-884h505v884z m-758-758v632q0 26 19 44t45 19h63v-63h-63v-632h63v-63h-63q-27 0-45 18t-19 45z m-189 126v379q0 26 18 45t45 18h63v-63h-63v-379h63v-63h-63q-26 0-45 18t-18 45z" horiz-adv-x="1024" />
<glyph glyph-name="twog" unicode="&#xe038;" d="m947 12h-379q-26 0-45 18t-18 45v695q0 26 18 44t45 19h379q27 0 45-19t18-44v-64q0-25-18-44t-45-19h-252v-442h126v126q-27 0-45 19t-18 45v63q0 25 18 44t45 19h126q26 0 45-19t18-44v-379q0-27-18-45t-45-18z m-568 0h-316q-26 0-45 18t-18 45v379q0 26 18 45t45 18h190v126h-190q-26 0-45 19t-18 44v64q0 26 18 44t45 19h316q27 0 45-19t18-44v-379q0-26-18-45t-45-19h-190v-126h190q27 0 45-18t18-45v-63q0-26-18-44t-45-19z" horiz-adv-x="1024" />
<glyph glyph-name="threeg" unicode="&#xe039;" d="m947 12h-379q-25 0-44 18t-19 45v695q0 26 19 44t44 19h379q27 0 45-19t18-44v-64q0-26-18-44t-45-19h-252v-442h126v126q-26 0-45 19t-18 45v63q0 25 18 44t45 19h126q27 0 45-19t18-44v-379q0-27-18-45t-45-18z m-568 0h-316q-26 0-45 18t-18 45v63q0 26 18 44t45 19h190v126h-190q-26 0-44 19t-19 45v63q0 25 19 44t44 19h190v126h-190q-26 0-45 19t-18 44v64q0 25 18 44t45 19h316q27 0 45-19t18-44v-695q0-27-18-45t-45-18z" horiz-adv-x="1024" />
<glyph glyph-name="fourg" unicode="&#xe03a;" d="m947 12h-379q-25 0-44 18t-19 45v695q0 25 19 44t44 19h379q27 0 45-19t18-44v-64q0-26-18-44t-45-19h-252v-442h126v126q-26 0-45 19t-18 45v63q0 25 18 44t45 19h126q27 0 45-19t18-44v-379q0-27-18-45t-45-18z m-568 0h-63q-26 0-45 18t-18 45v252h-190q-26 0-44 19t-19 45v379q0 25 19 44t44 19h63q27 0 45-19t18-44v-253h64v253q0 25 18 44t45 19h63q27 0 45-19t18-44v-695q0-27-18-45t-45-18z" horiz-adv-x="1024" />
<glyph glyph-name="gpsalt" unicode="&#xe03b;" d="m947 391q-26 0-45 18t-18 45q0 102-51 190t-138 138-190 51q-25 0-44 18t-19 44 19 45 44 19q103 0 197-40t161-108 107-161 40-196q0-27-18-45t-45-18z m-189 0q-26 0-45 18t-18 45q0 79-56 134t-134 55q-25 0-44 19t-19 44 19 45 44 19q86 0 159-43t114-115 43-158q0-27-18-45t-45-18z m-126 63q0-65-54-103l224-225q19-18 19-44t-19-45q-33-34-97-55t-120-27-111-6q-55 0-111 9t-123 40-114 77-76 113-40 124-10 110q0 57 6 113t27 119 56 98q19 18 45 18t44-18l225-225q37 53 102 53 52 0 89-37t38-89z" horiz-adv-x="1024" />
<glyph glyph-name="circleloaderfull" unicode="&#xe03c;" d="m505-51q-102 0-196 40t-162 107-107 161-40 197 40 196 107 161 162 108 196 40 197-40 161-108 107-161 40-196-40-197-107-161-161-107-197-40z m0 821q-86 0-158-43t-115-115-43-158 43-159 115-115 158-42 159 42 114 115 43 159-43 158-114 115-159 43z" horiz-adv-x="1024" />
<glyph glyph-name="circleloaderseven" unicode="&#xe03d;" d="m505-51q-137 0-253 67t-184 184-68 254q0 102 39 195t109 162l44-44q62 61 142 95t171 34v63q103 0 197-40t161-108 107-161 40-196-40-197-107-161-161-107-197-40z m-268 773l45-45q-44-44-68-101t-25-122q0-86 43-159t115-115 158-42 159 42 114 115 43 159-43 158-114 115-159 43v63q-77 0-146-29t-122-82z" horiz-adv-x="1024" />
<glyph glyph-name="circleloadersix" unicode="&#xe03e;" d="m505-51q-102 0-196 40t-162 107-107 161-40 197h63q0 90 35 171t94 142 142 94 171 35v63q103 0 197-40t161-108 107-161 40-196-40-197-107-161-161-107-197-40z m-379 505h63q0-86 43-159t115-115 158-42 159 42 114 115 43 159-43 158-114 115-159 43v63q-102 0-190-51t-138-138-51-190z" horiz-adv-x="1024" />
<glyph glyph-name="circleloaderfive" unicode="&#xe03f;" d="m505-51q-102 0-195 39t-162 109l44 44q-61 61-95 142t-34 171 35 171 94 142 142 94 171 35v63q103 0 197-40t161-108 107-161 40-196-40-197-107-161-161-107-197-40z m-379 505q0-77 29-146t82-123l45 46q44-45 101-69t122-24q86 0 159 42t114 115 43 159-43 158-114 115-159 43v63q-102 0-190-51t-138-138-51-190z" horiz-adv-x="1024" />
<glyph glyph-name="circleloaderfour" unicode="&#xe040;" d="m505-51v63q-90 0-171 35t-142 94-94 141-35 172 35 171 94 142 142 94 171 35v63q103 0 197-40t161-108 107-161 40-196-40-197-107-161-161-107-197-40z m-379 505q0-103 51-190t138-138 190-51v63q86 0 159 42t114 115 43 159-43 158-114 115-159 43v63q-102 0-190-51t-138-138-51-190z" horiz-adv-x="1024" />
<glyph glyph-name="circleloaderthree" unicode="&#xe041;" d="m862 97l-44 44q-61-61-142-95t-171-34-171 35-142 94-94 141-35 172 35 171 94 142 142 94 171 35v63q103 0 197-40t161-108 107-161 40-196-39-195-109-162z m-736 357q0-103 51-190t138-138 190-51q77 0 146 29t123 81l-46 46q45 43 69 101t24 122q0 86-43 158t-114 115-159 43v63q-102 0-190-51t-138-138-51-190z" horiz-adv-x="1024" />
<glyph glyph-name="circleloadertwo" unicode="&#xe042;" d="m947 454q0-90-35-172t-94-141-141-94-172-35-171 35-142 94-94 141-35 172 35 171 94 142 142 94 171 35v63q103 0 197-40t161-108 107-161 40-196h-63z m-821 0q0-103 51-190t138-138 190-51 190 51 138 138 51 190h-63q0 86-43 158t-114 115-159 43v63q-102 0-190-51t-138-138-51-190z" horiz-adv-x="1024" />
<glyph glyph-name="circleloaderone" unicode="&#xe043;" d="m947 454q0-90-35-172t-94-141-141-94-172-35-171 35-142 94-94 141-35 172 35 171 94 142 142 94 171 35v63q103 0 195-39t162-109l-44-44q61-62 95-143t34-170z m-821 0q0-103 51-190t138-138 190-51 190 51 138 138 51 190q0 77-29 146t-81 122l-46-45q-43 44-101 68t-122 25v63q-102 0-190-51t-138-138-51-190z" horiz-adv-x="1024" />
<glyph glyph-name="circleloaderempty" unicode="&#xe044;" d="m505 12q121 0 222 59t161 161 59 222-59 222-161 161-222 59-222-59-161-161-59-222 59-222 161-161 222-59z m0 821q103 0 190-51t138-138 51-190-51-190-138-138-190-51-190 51-138 138-51 190 51 190 138 138 190 51z" horiz-adv-x="1024" />
<glyph glyph-name="whatsapp" unicode="&#xe045;" d="m537 12q-123 0-230 59l-307-122 122 306q-59 108-59 230 0 97 38 184t101 151 151 101 184 38 184-38 151-101 101-151 37-184-37-184-101-151-151-101-184-37z m158 379h-63l-36-32q-44 12-109 77t-77 109l32 35v63q0 17-12 34t-26 24-20 1l-47-46q-38-38-11-120t104-158 158-103 119 11l47 46q6 6-2 21t-24 26-33 12z" horiz-adv-x="1024" />
<glyph glyph-name="whatsappalt" unicode="&#xe046;" d="m537 12q-123 0-230 59l-307-122 122 306q-59 108-59 230 0 97 38 184t101 151 151 101 184 38 184-38 151-101 101-151 37-184-37-184-101-151-151-101-184-37z m0 821q-95 0-175-47t-126-126-47-175 47-174 126-127 175-46 174 46 127 127 46 174-46 175-127 126-174 47z m170-547q-38-38-119-11t-158 103-104 158 11 120l47 46q6 6 20-1t26-24 12-34v-63l-32-35q12-45 77-109t109-77l36 32h63q16 0 33-12t24-26 2-21z" horiz-adv-x="1024" />
<glyph glyph-name="viber" unicode="&#xe047;" d="m891 180q-68-60-197-86t-267-15l-173-130v162q-86 27-135 69-57 51-88 145t-32 192 32 193 89 145 165 78 220 27 220-27 165-78 90-145 31-193-31-192-89-145z m-262 242l65-11q-8 119-92 203t-201 91l10-64q85-11 146-72t72-147z m-207 153l12-71q40-20 58-58l71-12q-11 52-50 90t-91 51z m-105-58v63q0 17-13 34t-26 24-20 1l-46-46q-38-39-11-120t103-158 158-103 119 11l47 46q6 6-1 20t-24 27-34 11h-63l-36-31q-44 12-108 76t-77 109z m63 316l10-64q98-2 182-52t133-134 53-181l64-11q0 89-35 171t-94 141-141 95-172 35z" horiz-adv-x="1024" />
<glyph glyph-name="squareviber" unicode="&#xe048;" d="m884-51h-758q-52 0-89 37t-37 89v758q0 52 37 89t89 37h758q52 0 89-37t37-89v-758q0-52-37-89t-89-37z m-568 631v95q0 26-17 52t-36 37-30 1l-72-73q-30-30-34-80t16-108 61-125 102-125 125-101 124-62 109-16 79 33l73 73q10 10-1 31t-37 36-52 16h-94l-65-39q-44 12-109 64t-118 117-64 110z m377-158l64-11q-8 119-92 203t-201 91l10-64q85-11 147-72t72-147z m-208 153l12-71q39-19 59-58l70-12q-12 52-50 90t-91 51z m-43 258l11-64q99-2 182-52t133-134 52-181l64-11q0 89-35 171t-94 141-141 95-172 35z" horiz-adv-x="1024" />
<glyph glyph-name="teamviewer" unicode="&#xe049;" d="m884-51h-758q-52 0-89 37t-37 89v758q0 52 37 89t89 37h758q52 0 89-37t37-89v-758q0-52-37-89t-89-37z m-379 884q-102 0-190-51t-138-138-51-190 51-190 138-138 190-51 190 51 138 138 51 190-51 190-138 138-190 51z m127-442h-253v-127l-190 190 190 189v-126h253v126l189-189-189-190v127z" horiz-adv-x="1024" />
<glyph glyph-name="tunein" unicode="&#xe04a;" d="m884 264h-189v190q0 52 37 89t89 37h189v-189q0-53-37-90t-89-37z m-379-315h-189v252h316v-126q0-52-38-89t-89-37z m-505 442v189h505q52 0 89-37t38-89v-190h-506q-52 0-89 37t-37 90z m474 252q-66 0-112 47t-46 111 46 112 112 46 111-46 47-112-47-111-111-47z" horiz-adv-x="1024" />
<glyph glyph-name="tuneinalt" unicode="&#xe04b;" d="m884-51h-695q-52 0-89 37t-37 89v695q0 52 37 89t89 37h695q52 0 89-37t37-89v-695q0-52-37-89t-89-37z m-347 821q-40 0-67-28t-28-67 28-67 67-28 67 28 28 67-28 67-67 28z m95-348q0 40-29 67t-70 28h-344v-95q0-39 29-67t70-28h344v95z m0-158h-190v-189h95q39 0 67 28t28 67v94z m252 253h-95q-39 0-67-28t-27-67v-95h94q40 0 67 28t28 67v95z" horiz-adv-x="1024" />
<glyph glyph-name="weightscale" unicode="&#xe04c;" d="m957 66q-3-49-42-83t-92-34h-632q-52 0-91 34t-44 83l-56 738q-4 63 36 109t100 45h737q61 0 101-45t36-109z m-452 766q-98 0-184-49t-132-141l215-86-79 159q-9 10-9 23t9 22 22 10 22-10l159-182q45-4 75-23l218 87q-46 92-132 141t-184 49z" horiz-adv-x="1024" />
<glyph glyph-name="boxing" unicode="&#xe04d;" d="m607 355q9 25 14 38t16 33 19 31 22 24 29 20 36 12 46 4q65 0 112-46t46-112q0-73-50-135t-139-100v-112q0-27-74-45t-179-18-178 18-74 45v143q-88 61-139 156t-51 206q0 90 35 172t94 141 142 94 171 35q74 0 140-13t120-38 87-69 32-101q0-44-15-78t-41-49-50-24-52-7q-50 0-104-53t-54-105q0-39 39-67z" horiz-adv-x="1024" />
<glyph glyph-name="speedalt" unicode="&#xe04e;" d="m505-51q-102 0-196 40t-162 107-107 161-40 197 40 196 107 161 162 108 196 40 197-40 161-108 107-161 40-196-40-197-107-161-161-107-197-40z m-170 508l86-225q-42-38-42-94 0-52 37-89t89-37 89 37 38 89q0 49-34 85t-83 40l-113 226q-1 2-4 7-9 19-15 30t-16 28-21 23-17 0q-12-9-13-32t5-47 14-41z m170 439q-90 0-171-35t-142-94-94-142-35-171h2q8 104 64 191t147 137 198 51 197-51 147-137 64-191h65q0 90-35 171t-94 142-141 94-172 35z" horiz-adv-x="1024" />
<glyph glyph-name="scriptalt" unicode="&#xe04f;" d="m758-51h-474-31q-45 0-74 28t-41 70-12 91v505h-63q-26 0-44 19t-19 44q0 105 74 179t179 74h505q47 0 87-40t39-86v-569h63q27 0 45-18t18-45q0-104-74-178t-178-74z m-632 897q-63-57-63-140h63v140z m695-53q0 50-27 76t-68 27h-537v-782q0-74 86-94 34 14 59 46t36 72h-86q-13 0-22 9t-9 23 9 22 22 9h95q0 26 19 45t44 18h379v529z m-379-592q0-109-71-189h387q79 0 134 55t55 134h-505z m-189 158q0 13 9 22t22 10h442q13 0 22-10t10-22-10-22-22-10h-442q-13 0-22 10t-9 22z m473 158h-442q-13 0-22 9t-9 22 9 23 22 9h442q13 0 22-9t10-23-10-22-22-9z m0 189h-442q-13 0-22 10t-9 22 9 22 22 10h442q13 0 22-10t10-22-10-22-22-10z" horiz-adv-x="1024" />
<glyph glyph-name="splitthree" unicode="&#xe050;" d="m1007 114l-114-160q-4-5-9-5t-10 5l-114 160q-6 10 4 24h57v126 0q0 26-16 52t-47 51-60 45-69 46-61 42v-362h58q9-14 3-24l-115-160q-3-5-9-5t-10 5l-113 160q-7 10 3 24h57v357q-22-16-61-41t-68-45-60-44-47-49-17-52v0-126h58q10-14 3-24l-114-160q-4-5-10-5t-9 5l-114 160q-7 10 3 24h57v189q0 30 28 64t70 65 92 64 91 64 70 62 28 60v190q0 25 19 44t45 19 44-19 18-44v-190q0-26 28-58t71-62 91-64 91-65 70-65 28-65v-189h57q10-14 3-24z" horiz-adv-x="1024" />
<glyph glyph-name="mergethree" unicode="&#xe051;" d="m568 296v-158h58q9-14 3-23l-115-161q-3-5-9-5t-10 5l-114 161q-6 9 4 23h57v158q0 31-39 71t-95 77-111 75-95 80-39 76v221q0 25 19 44t45 19 44-19 18-44v-158q0-26 17-51t47-50 60-44 68-45 61-42v390q0 25 19 44t45 19 44-19 18-44v-394q21 16 61 42t69 45 60 46 47 51 16 52v158q0 25 19 44t45 19 44-19 18-44v-221q0-35-39-76t-95-80-111-77-95-77-39-69z" horiz-adv-x="1024" />
<glyph glyph-name="layersthree" unicode="&#xe052;" d="m947 264h-884q-26 0-45 19t-18 44q94 103 169 190h92l-166-190h821l-166 190h92q33-40 76-87t67-75l25-28q0-26-18-44t-45-19z m0 316h-884q-26 0-45 18t-18 45q148 162 221 253 12 15 36 30t41 25l18 8h379q7-3 18-8t37-22 39-33q33-42 88-105t95-105l38-43q0-26-18-45t-45-18z m-252 316h-379l-221-253h821z m-434-695l-166-189h821l-166 189h92q76-88 168-189 0-26-18-45t-45-18h-884q-26 0-45 18t-18 45q94 102 169 189h92z" horiz-adv-x="1024" />
<glyph glyph-name="mutemic" unicode="&#xe053;" d="m994-35q-16-16-39-16t-39 16l-899 899q-17 16-17 39t16 40 40 16 39-16l899-899q16-16 16-40t-16-39z m-272 423q36 60 36 129 0 26 18 44t45 19 45-19 18-44q0-122-70-221z m-403 403q8 71 61 119t125 48q79 0 134-55t56-133v-253q0-42-19-83z m160-461q-63 9-107 53t-53 106z m-289 250q26 0 45-19t19-44q0-105 73-179t178-74q17 0 37 3l101-102q-37-15-75-21v-69h127q26 0 45-19t18-45-18-44-45-18h-378q-27 0-45 18t-18 44 18 45 45 19h125v69q-135 23-225 128t-90 245q0 26 19 44t44 19z" horiz-adv-x="1024" />
<glyph glyph-name="zerply" unicode="&#xe054;" d="m884 201q0-5 0-14t-4-36-8-50-18-52-27-51-42-35-59-14q-62 0-116 19t-95 48-77 55-86 47-99 20q-76 0-102 5t-25 27q0 47 54 129t120 158 150 169 118 144q-41-21-59-30t-59-21-71-13q-51 0-89 40t-37 87q0 25 6 48t16 36 18 24 16 14l7 4q1-3 3-7t12-15 19-19 26-15 34-7q75 0 139 10t95 21 63 22 51 10q22 0 36-5t19-16 7-19 1-23q0-35-55-111t-124-153-153-173-124-153q56-20 138-64t147-74 108-30q78 0 122 57z" horiz-adv-x="1024" />
<glyph glyph-name="circlegoogleplus" unicode="&#xe055;" d="m505-51q-4 0-29 2 61 66 61 156 0 61-15 93t-48 64q-16 15-54 34t-49 28q-18 9-37 29t-18 36 11 31 30 29 29 20 24 14q25 14 44 58t20 100q0 55-19 107t-53 83h72l64 63h-277q114 63 244 63 103 0 197-40t161-108 107-161 40-196-40-197-107-161-161-107-197-40z m349 757h-95v95q0 14-10 23t-22 9-22-9-9-23v-95h-95q-14 0-23-9t-9-22 9-22 23-10h95v-95q0-12 9-22t22-9 22 9 10 22v95h95q12 0 22 10t9 22-9 22-22 9z m-601-379z m0 0q-120 0-218-55-35 89-35 182 0 4 2 29 65-58 188-61v-31q0-13 7-25t14-18 19-12 15-6z m126 316q0-75-45-116t-113-42q-64 0-111 56t-47 134q0 12 3 28 41 71 103 127 12 3 20 3 78 0 134-56t56-134z m-126-379q89 0 140-56t50-133q0-63-60-111-103 26-186 90t-134 155q80 55 190 55z" horiz-adv-x="1024" />
<glyph glyph-name="circletwitter" unicode="&#xe056;" d="m505-51q-102 0-196 40t-162 107-107 161-40 197 40 196 107 161 162 108 196 40 197-40 161-108 107-161 40-196-40-197-107-161-161-107-197-40z m297 757q-6-3-18-10l-19-13t-18-10-21-7q-36 40-90 40-115 0-115-96v-59q-159 8-244 117-24-26-24-56 0-65 48-99-6 0-17-1t-17 0-14 5q0-45 24-76t66-39q-9-11-27-11-16 0-28 8 0-38 37-59t83-22q-17-27-51-40t-73-14q-14 0-38 7t-25 7q16-31 65-54t123-23q67 0 124 23t97 62 70 88 43 102 15 104q0 2 12 8t27 18 24 22q-53 0-71-2 34 21 52 80z" horiz-adv-x="1024" />
<glyph glyph-name="circlefacebook" unicode="&#xe057;" d="m632-35v299h63q26 0 45 13t18 30v41q0 18-18 30t-45 13h-63v126q0 27 18 45t45 18 45 12 18 30v42q0 18-18 30t-45 12q-105 0-147-42t-43-147v-126q-25 0-44-13t-19-30v-41q0-18 19-30t44-13v-315q-102 0-196 40t-162 107-107 161-40 197 40 196 107 161 162 108 196 40 197-40 161-108 107-161 40-196q0-175-107-311t-271-178z" horiz-adv-x="1024" />
<glyph glyph-name="circleyahoo" unicode="&#xe058;" d="m505-51q-137 0-253 67t-184 184-68 254q0 102 40 196t107 161 162 108 196 40 197-40 161-108 107-161 40-196q0-137-67-254t-184-184-254-67z m316 678q0 7-5 12t-11 4h-221q-7 0-11-4t-5-12v-31q0-7 5-11t11-5h55l-126-139-117 202h93q7 0 12 5t4 11v32q0 6-4 11t-12 4h-221q-7 0-11-4t-4-11v-32q0-7 4-11t11-5h45v-1l129-227v-151h-47q-7 0-12-4t-4-11v-32q0-7 4-11t12-5h221q7 0 11 5t5 11v32q0 6-5 11t-11 4h-48v154l147 162h90q7 0 11 5t5 11v31z" horiz-adv-x="1024" />
<glyph glyph-name="circlegithub" unicode="&#xe059;" d="m630-36q0 1 1 4t1 4q0 84-20 169t-54 125q129 11 196 76t67 167q0 90-63 138v90q0 11-11 21t-21 11q-12 0-117-70-47 6-104 6-56 0-103-6-106 70-118 70-10 0-21-11t-10-21q0-9-2-43t-3-51q-59-47-59-134 0-103 68-167t195-76q-5-7-14-19-42-47-122-47-16 0-32 14t-31 31-32 37-41 32-54 12q0-7 10-19t26-33 27-42q26-50 54-72t73-23q47 0 86 14-23-87-23-179v-4t1-4q-166 43-273 178t-107 311q0 103 40 197t107 160 162 108 196 40 197-40 161-108 107-160 40-197q0-175-107-311t-273-178z" horiz-adv-x="1024" />
<glyph glyph-name="forumsalt" unicode="&#xe05a;" d="m916 138h-32v-189l-189 189h-411q-52 0-81 45l144 144h379q65 0 112 47t46 111v221h32q39 0 67-27t27-67v-379q0-40-27-67t-67-28z m-190 253h-410l-190-190v190h-31q-40 0-67 27t-28 67v379q0 40 28 67t67 28h631q40 0 67-28t28-67v-379q0-39-28-67t-67-27z" horiz-adv-x="1024" />
<glyph glyph-name="circlepath" unicode="&#xe05b;" d="m505-51q-102 0-196 40t-162 107-107 161-40 197 40 196 107 161 162 108 196 40 197-40 161-108 107-161 40-196-40-197-107-161-161-107-197-40z m0 757q-49 0-93-12t-81-38-57-70-21-101q0-64 39-118l42 42q-6 11-12 38t-6 38q0 66 59 112t130 46q67 0 128-40t62-86q0-50-34-88t-93-38q-18 0-27 0t-19 4-13 9-4 18v95q0 13-9 22t-22 9v0q-13 0-23-9t-9-22v-221q0-11-4-18t-15-10-18-3-22-1h-4q-14 0-22-8t-9-15l-1-8q0-12 4-19t13-9 16-3 23-1h7 32q26 0 44 18t19 45v95q0-12 21-22t42-10q91 0 140 54t50 136q0 60-38 104t-94 65-121 20z" horiz-adv-x="1024" />
<glyph glyph-name="circlevimeo" unicode="&#xe05c;" d="m505-51q-102 0-196 40t-162 107-107 161-40 197 40 196 107 161 162 108 196 40 197-40 161-108 107-161 40-196-40-197-107-161-161-107-197-40z m142 757q-45 0-77-43t-33-97q16 14 35 14 21 0 32-10t12-37q0-25-18-63t-40-67-37-28q-7 0-14 16t-14 46-12 58-12 70-11 62q-15 79-63 79-71 0-142-126l15-32q11 13 26 23t22 9 12-4 8-13 5-15 4-17 2-14q4-18 12-65t16-85 23-79 37-64 54-23q39 0 103 68t115 159 51 152q0 126-111 126z" horiz-adv-x="1024" />
<glyph glyph-name="circlevine" unicode="&#xe05d;" d="m505-51q-102 0-196 40t-162 107-107 161-40 197 40 196 107 161 162 108 196 40 197-40 161-108 107-161 40-196-40-197-107-161-161-107-197-40z m253 505q-25 0-49 4t-50 14-46 29-32 46-13 65q0 28 21 61t43 33q22 0 42-19t21-44q0-85-14-126h62q15 45 15 134 0 50-34 84t-92 35q-45 0-86-41t-41-98q0-49 14-92t30-69 38-46 31-25 14-8q0-17-28-56t-59-71-40-31q-4 0-24 17t-47 55-55 84-45 115-18 139h-63q0-99 24-188t58-144 72-96 64-59 34-18q7 0 36 22t64 56 62 82 28 93q40-3 63 0v63z" horiz-adv-x="1024" />
<glyph glyph-name="instagramtwo" unicode="&#xe05e;" d="m884-51h-758q-52 0-89 37t-37 89v758q0 52 37 89t89 37h758q52 0 89-37t37-89v-758q0-52-37-89t-89-37z m-631 947h-127v-253h127v253z m252-316q-79 0-134-55t-55-134 55-135 134-55 134 55 56 135-56 134-134 55z m379 221q0 13-9 22t-23 10h-63q-13 0-22-10t-9-22v-63q0-13 9-22t22-10h63q13 0 23 10t9 22v63z m63-221h-189q63-85 63-189 0-86-43-159t-114-115-159-42-158 42-115 115-43 159q0 104 64 189h-190v-505q0-27 18-45t45-18h758q26 0 44 18t19 45v505z" horiz-adv-x="1024" />
<glyph glyph-name="instagramthree" unicode="&#xe05f;" d="m884-51h-758q-52 0-89 37t-37 89v758q0 52 37 89t89 37h758q52 0 89-37t37-89v-758q0-52-37-89t-89-37z m-758 947q-25 0-44-18t-19-45v-190h63v253z m379-821q86 0 159 42t114 115 43 159-43 158-114 115-159 42-158-42-115-115-43-158 43-159 115-115 158-42z m442 758q0 26-18 45t-45 18h-631v-223q108 97 252 97 83 0 156-34t126-93h160v190z m-189-95v63q0 13 9 22t22 10h63q13 0 23-10t9-22v-63q0-13-9-22t-23-10h-63q-13 0-22 10t-9 22z m-253-158q79 0 134-55t56-134-56-135-134-55-134 55-55 135 55 134 134 55z" horiz-adv-x="1024" />
<glyph glyph-name="flickrthree" unicode="&#xe060;" d="m789 264q-91 0-156 65t-65 156 65 157 156 64 157-64 64-157-64-156-157-65z m0 379q-65 0-111-46t-46-112 46-111 111-47 112 47 46 111-46 112-112 46z m-568-379q-92 0-156 65t-65 156 65 157 156 64 156-64 65-157-65-156-156-65z" horiz-adv-x="1024" />
<glyph glyph-name="quora" unicode="&#xe061;" d="m762 100q25-25 59-25 27 0 45-19t18-45-18-44-45-18q-43 0-95 24t-88 60q-65-21-133-21-90 0-171 37t-142 101-94 151-35 184 35 184 94 151 142 101 171 38 172-38 141-101 94-151 35-184q0-117-50-218t-135-167z m-257 733q-69 0-127-47t-91-126-34-175 34-174 91-127 127-46q41 0 79 18-28 45-79 45-25 0-44 18t-19 45 19 45 44 18q43 0 94-24t88-59q71 100 71 241 0 95-34 175t-92 126-127 47z" horiz-adv-x="1024" />
<glyph glyph-name="squarequora" unicode="&#xe062;" d="m884-51h-758q-52 0-89 37t-37 89v758q0 52 37 89t89 37h758q52 0 89-37t37-89v-758q0-52-37-89t-89-37z m-126 536q0 118-74 201t-179 84-178-84-74-201 74-200 178-84q62 0 117 33 20-14 51-23t53-10q13 0 22 10t10 22-10 22-22 9q-24 0-43 19 75 84 75 202z m-221-94q-13 0-22-10t-10-22 10-22 22-10q23 0 43-18-33-45-75-45-52 0-89 65t-37 156 37 157 89 64 89-64 38-157q0-59-18-112-42 18-77 18z" horiz-adv-x="1024" />
<glyph glyph-name="circlequora" unicode="&#xe063;" d="m505-51q-137 0-253 67t-184 184-68 254 68 253 184 184 253 68 254-68 184-184 67-253-67-254-184-184-254-67z m253 536q0 118-74 201t-179 84-178-84-74-201 74-200 178-84q62 0 117 33 20-14 51-23t53-10q13 0 22 10t10 22-10 22-22 9q-24 0-43 19 75 84 75 202z m-221-94q-13 0-22-10t-10-22 10-22 22-10q23 0 43-18-33-45-75-45-52 0-89 65t-37 156 37 157 89 64 89-64 38-157q0-59-18-112-42 18-77 18z" horiz-adv-x="1024" />
<glyph glyph-name="picasa" unicode="&#xe064;" d="m973 264h-215v627q115-67 184-183t68-254q0-98-37-190z m-278 296l-366 366q86 33 176 33 98 0 190-38v-361z m-249 162l-422-422q-24 75-24 154 0 142 73 261t194 185z m-193-281v-424q-137 79-204 221z m63-240h626q-67-115-183-184t-254-68q-98 0-189 37v215z" horiz-adv-x="1024" />
<glyph glyph-name="branch" unicode="&#xe065;" d="m979-51h-190q-13 0-22 9t-9 22v190q0 12 9 22t22 9h32v63q0 26-16 49t-47 41-60 34-69 32-61 30v-249h32q13 0 22-9t10-22v-190q0-13-10-22t-22-9h-190q-12 0-22 9t-9 22v190q0 12 9 22t22 9h32v244q-22-12-61-29t-68-31-60-32-47-41-17-48v-63h32q13 0 22-9t10-22v-190q0-13-10-22t-22-9h-189q-13 0-23 9t-9 22v190q0 12 9 22t23 9h31v126q0 30 28 60t70 53 92 49 91 49 70 50 28 55v63h-32q-12 0-22 10t-9 22v189q0 13 9 23t22 9h190q13 0 22-9t10-23v-189q0-13-10-22t-22-10h-32v-63q0-26 28-54t71-49 91-50 91-50 70-53 28-60v-126h32q13 0 22-9t9-22v-190q0-13-9-22t-22-9z" horiz-adv-x="1024" />
<glyph glyph-name="ingress" unicode="&#xe066;" d="m537-51l-474 252v505l474 253 473-253v-505z m410 726l-379 204v-173h-63v173l-379-204v-392l144 84 28-49-159-92 398-214 398 214-160 92 29 49 143-84v392z m-758-32h695l-347-568z m348-171l171 108h-342z m-187 50l155-267v167z m218-100v-167l156 267z" horiz-adv-x="1024" />
<glyph glyph-name="squarezerply" unicode="&#xe067;" d="m884-51h-758q-52 0-89 37t-37 89v758q0 52 37 89t89 37h758q52 0 89-37t37-89v-758q0-52-37-89t-89-37z m-210 319q-29 0-65 23t-83 54-84 46q273 260 273 335 0 11 0 16t-4 13-13 11-24 4q-13 0-34-10t-42-22-64-22-92-10q-19 0-35 16t-21 32l-7 16q-2-1-5-3t-10-10-12-16-11-25-5-33q0-32 20-52t54-19 84 9 74 22q-30-33-92-89t-107-96-80-88-36-80q0-15 16-18t67-4q35 0 67-13t57-33 52-38 63-33 77-13q22 0 39 10t28 24 19 35 11 36 6 35 3 24v10q-3-5-9-13t-28-19-47-12z" horiz-adv-x="1024" />
<glyph glyph-name="circlezerply" unicode="&#xe068;" d="m505-51q-137 0-253 67t-184 184-68 254q0 102 40 196t107 161 162 108 196 40 197-40 161-108 107-161 40-196q0-137-67-254t-184-184-254-67z m169 319q-29 0-65 23t-83 54-84 46q273 260 273 335 0 11 0 16t-5 13-12 11-24 4q-13 0-34-10t-42-22-64-22-92-10q-19 0-35 16t-21 32l-7 16q-2-1-5-3t-9-10-13-16-11-25-5-33q0-32 20-52t54-19 84 9 74 22q-30-33-92-89t-107-96-80-88-36-80q0-15 16-18t67-4q35 0 67-13t57-33 52-38 63-33 77-13q22 0 39 10t28 24 19 35 11 36 6 35 3 24v10q-3-5-9-13t-28-19-47-12z" horiz-adv-x="1024" />
<glyph glyph-name="squarevimeo" unicode="&#xe069;" d="m884-51h-758q-52 0-89 37t-37 89v758q0 52 37 89t89 37h758q52 0 89-37t37-89v-758q0-52-37-89t-89-37z m-237 757q-45 0-77-43t-33-97q16 14 35 14 21 0 32-10t12-37q0-25-18-63t-40-67-37-28q-7 0-14 16t-14 46-12 58-12 70-11 62q-15 79-63 79-71 0-142-126l15-32q11 13 26 23t22 9 12-4 8-13 5-15 4-17 2-14q4-18 12-65t16-85 23-79 37-64 54-23q39 0 103 68t115 159 51 152q0 126-111 126z" horiz-adv-x="1024" />
<glyph glyph-name="squaretwitter" unicode="&#xe06a;" d="m884-51h-758q-52 0-89 37t-37 89v758q0 52 37 89t89 37h758q52 0 89-37t37-89v-758q0-52-37-89t-89-37z m-82 757q-6-3-18-11t-19-13-18-9-21-7q-36 40-90 40-115 0-115-96v-59q-159 8-244 117-24-26-24-56 0-65 48-99-7 0-17-1t-17 0-14 5q0-45 24-76t66-39q-9-11-27-11-16 0-28 8 0-38 37-59t83-22q-17-27-51-40t-73-14q-14 0-38 7t-25 7q16-31 65-54t123-23q67 0 124 23t97 62 70 88 43 102 15 104q0 2 12 8t27 17 24 23q-53 0-71-2 34 21 52 80z" horiz-adv-x="1024" />
<glyph glyph-name="brightnessalt" unicode="&#xe06b;" d="m872 545l138-91-138-92q0-2-1-6t-3-5l74-150-167-11q0-1-3-4t-3-4l-11-165-149 73q-2 0-6-2t-6-1l-92-138-92 138q-2 0-6 1t-5 2l-149-73-11 166q-1 1-4 4t-4 3l-166 11 73 150q0 1-1 5t-2 6l-138 92 138 91q0 3 2 6t2 5l-74 150 167 11q1 1 3 4t4 4l11 166 149-73q2 0 5 1t6 3l92 137 92-137q2-1 6-3t6-1l149 73 11-167q1-1 4-3t3-4l166-11-74-149q1-2 3-6t1-6z m-367 161q-104 0-178-74t-74-178 74-179 178-74 179 74 74 179-74 178-179 74z" horiz-adv-x="1024" />
<glyph glyph-name="brightnessalthalf" unicode="&#xe06c;" d="m872 545l138-91-138-92q0-2-1-6t-3-5l74-150-167-11q0-1-3-4t-3-4l-11-165-149 73q-2 0-6-2t-6-1l-92-138-92 138q-2 0-6 1t-5 2l-149-73-11 166q-1 1-4 4t-4 3l-166 11 74 150q-1 1-2 5t-2 6l-138 92 138 91q0 3 2 6t2 5l-74 150 167 11q1 1 3 4t4 4l11 166 149-73q2 0 5 1t6 3l92 137 92-137q2-1 6-3t6-1l149 73 11-167q1-1 4-3t3-4l166-11-73-149q0-2 2-6t1-6z m-367 161q-104 0-178-74t-74-178 74-179 178-74 179 74 74 179-74 178-179 74z m-189-252q0 79 55 134t134 55v-379q-79 0-134 56t-55 134z" horiz-adv-x="1024" />
<glyph glyph-name="brightnessaltfull" unicode="&#xe06d;" d="m872 545l138-91-138-92q0-2-1-6t-3-5l74-150-167-11q0-1-3-4t-3-4l-11-165-149 73q-2 0-6-2t-6-1l-92-138-92 138q-2 0-6 1t-5 2l-149-73-11 166q-1 1-4 4t-4 3l-166 11 74 150q-1 1-2 5t-2 6l-138 92 138 91q0 3 2 6t2 5l-74 150 167 11q1 1 3 4t4 4l11 166 149-73q2 0 5 1t6 3l92 137 92-137q2-1 6-3t6-1l149 73 11-167q1-1 4-3t3-4l166-11-74-149q1-2 3-6t1-6z m-367 161q-104 0-178-74t-74-178 74-179 178-74 179 74 74 179-74 178-179 74z m0-442q-79 0-134 56t-55 134 55 134 134 55 134-55 56-134-56-134-134-56z" horiz-adv-x="1024" />
<glyph glyph-name="brightnessaltauto" unicode="&#xe06e;" d="m872 545l138-91-138-92q0-2-1-6t-2-5l73-150-167-11q0-1-3-4t-3-4l-11-165-149 73q-2 0-6-2t-6-1l-92-138-92 138q-2 0-6 1t-5 2l-149-73-11 166q-1 1-4 4t-4 3l-166 11 73 150q0 1-1 5t-2 6l-138 92 138 91q0 3 2 6t2 5l-74 150 167 11q1 1 3 4t4 4l11 166 149-73q2 0 5 1t6 3l92 137 92-137q2-1 6-3t6-1l149 74 11-168q1-1 4-3t3-4l166-11-73-149q0-2 2-6t1-6z m-367 161q-104 0-178-74t-74-178q0-87 53-155t136-90v-8h126v8q83 22 137 90t53 155q0 104-74 178t-179 74z m95-379q-13 0-22 10t-10 22v32h-126v-32q0-13-9-22t-23-10-22 10-9 22v158q0 27 18 45t45 18h126q26 0 45-18t19-45v-158q0-13-10-22t-22-10z m-32 190h-126v-63h126v63z" horiz-adv-x="1024" />
<glyph glyph-name="shirtbuttonthree" unicode="&#xe06f;" d="m505-51q-102 0-196 40t-162 107-107 161-40 197 40 196 107 161 162 108 196 40 197-40 161-108 107-161 40-196-40-197-107-161-161-107-197-40z m0 884q-102 0-190-51t-138-138-51-190 51-190 138-138 190-51 190 51 138 138 51 190-51 190-138 138-190 51z m0-695q-86 0-158 42t-115 115-43 159 43 158 115 115 158 43 159-43 114-115 43-158-43-159-114-115-159-42z m-190 379q-26 0-44-19t-18-45 18-44 44-18 45 18 19 45-19 45-45 18z m190 189q-26 0-45-18t-18-45 18-45 45-18 45 18 18 45-18 45-45 18z m0-379q-26 0-45-18t-18-45 18-45 45-18 45 18 18 45-18 45-45 18z m189 190q-26 0-44-19t-18-45 18-44 44-18 45 18 19 45-19 45-45 18z" horiz-adv-x="1024" />
<glyph glyph-name="openshare" unicode="&#xe070;" d="m979 391h-101q-23-136-128-226t-245-90q-77 0-146 29t-122 81l90 90q74-74 178-74t179 74 74 179v31q0 13 9 22t22 10h190q13 0 22-10t9-22v-63q0-13-9-22t-22-9z m-347 63q0-52-38-90t-89-37-89 37-37 90 37 89 89 37 89-37 38-89z m-127 252q-104 0-178-74t-74-178v-32q0-13-10-22t-22-9h-189q-13 0-23 9t-9 22v63q0 13 9 22t23 10h100q23 135 128 225t245 91q77 0 146-29t123-82l-90-90q-74 74-179 74z" horiz-adv-x="1024" />
<glyph glyph-name="copyapp" unicode="&#xe071;" d="m821 454l189-379q-176 12-324 37-57 10-117 27l-127-64-30 75-65-43-159 431-170-58-18 37 143 143-17 46 73-24-10 24 95-31 117-242q50 38 72 49l64 35q25-8 56-18l291 397-99-443z" horiz-adv-x="1024" />
<glyph glyph-name="bowl" unicode="&#xe072;" d="m884-20q0-13-9-22t-23-9h-694q-13 0-22 9t-10 22q0 32-13 62t-31 57-38 57-31 75-13 96v221q0 13 9 23t23 9h586l207 363q7 12 20 15t23-3 15-19-3-24l-189-332h21l244 244q9 10 22 10t23-10 9-22-10-23l-199-199h178q13 0 22-9t9-23v-221q0-52-13-97t-31-75-38-58-31-57-13-60z" horiz-adv-x="1024" />
<glyph glyph-name="cloudalt" unicode="&#xe073;" d="m758 75h-537q-92 0-156 64t-65 157q0 83 54 145t135 73v2 1q0 86 43 158t115 115 158 43q99 0 178-56t115-144q93-23 153-100t59-174q0-109-73-191t-179-93z" horiz-adv-x="1024" />
<glyph glyph-name="cloudaltdownload" unicode="&#xe074;" d="m758 75h-537q-92 0-156 64t-65 157q0 83 54 145t135 73v2 1q0 86 43 158t115 115 158 43q99 0 178-56t115-144q93-23 153-100t59-174q0-109-73-191t-179-93z m-75 316h-115v157q0 13-9 23t-22 9h-63q-13 0-23-9t-9-23v-157h-114q-8 0-11-15t5-23l164-143q8-9 19-9t19 9l165 143q8 9 5 23t-11 15z" horiz-adv-x="1024" />
<glyph glyph-name="cloudaltupload" unicode="&#xe075;" d="m758 75h-537q-92 0-156 64t-65 157q0 83 54 145t135 73v2 1q0 86 43 158t115 115 158 43q99 0 178-56t115-144q93-23 153-100t59-174q0-109-73-191t-179-93z m-69 353l-165 143q-8 9-19 9t-19-9l-164-143q-8-9-5-23t11-14h114v-158q0-13 9-22t23-10h63q13 0 22 10t9 22v158h115q8 0 11 14t-5 23z" horiz-adv-x="1024" />
<glyph glyph-name="cloudaltsync" unicode="&#xe076;" d="m758 75h-537q-92 0-156 64t-65 157q0 83 54 145t135 73v2 1q0 86 43 158t115 115 158 43q99 0 178-56t115-144q93-23 153-100t59-174q0-109-73-191t-179-93z m-442 189l28 29q26-42 68-67t93-25q79 0 134 55l-44 46q-38-38-90-38-37 0-68 21t-46 54l51 52h-126v-127z m379 253l-29-29q-26 43-68 67t-93 25q-78 0-134-55l44-45q38 37 90 37 38 0 69-21t46-54l-52-51h127v126z" horiz-adv-x="1024" />
<glyph glyph-name="cloudaltprivate" unicode="&#xe077;" d="m758 77v-2h-32v0h-505q-92 0-156 64t-65 157q0 83 54 145t135 73v2 1q0 86 43 158t115 115 158 43q99 0 178-56t115-144q93-23 153-100t59-174q0-109-72-190t-180-92z m-126 377q0 52-38 89t-89 37-89-37-37-89v-221q0-13 9-22t22-10h190q13 0 22 10t10 22v221z m-190-63v63q0 26 19 45t45 18 44-18 18-45v-63h-126z" horiz-adv-x="1024" />
<glyph glyph-name="flipboard" unicode="&#xe078;" d="m979 580h-284v-284q0-13-10-22t-22-10h-284v-284q0-13-10-22t-22-9h-252q-13 0-23 9t-9 22v632 252q0 13 9 22t23 10h252 632q13 0 22-10t9-22v-252q0-13-9-23t-22-9z" horiz-adv-x="1024" />
<glyph glyph-name="octoloaderempty" unicode="&#xe079;" d="m758 384v140l252 104v-349z m189 151l-126-53v-57l126-52v162z m-313 148l105 251 247-246-253-105z m127 141l-53-127 41-40 126 52z m-326-118l-104 253h349l-105-253h-140z m-11 190l53-126h57l52 126h-162z m-148-313l-252 105 247 247 105-252z m-26 241l-115-115 126-52 41 40z m3-440l-253-105v349l253-104v-140z m-190 151v-162l126 52v57z m313-309l-105-253-247 247 252 105z m-126-142l52 126-41 40-126-52z m325 117l105-252h-349l104 252h140z m11-189l-52 126h-57l-53-126h162z m147 313l253-105-247-247-105 253z m28-241l114 114-126 52-41-40z" horiz-adv-x="1024" />
<glyph glyph-name="octoloaderone" unicode="&#xe07a;" d="m758 384v140l252 104v-349z m189 151l-126-53v-57l126-52v162z m-313 148l105 251 248-246-253-105z m127 141l-53-127 41-40 126 52z m-326-118l-104 253h349l-105-253h-140z m-158-123l-252 105 246 247 105-252z m-27 241l-115-115 126-52 41 40z m3-440l-253-105v349l253-104v-140z m-190 151v-162l126 52v57z m313-309l-105-253-247 247 252 105z m-126-142l52 126-41 40-126-52z m325 117l105-252h-349l104 252h140z m11-189l-52 126h-57l-53-126h162z m147 313l253-105-247-247-105 253z m28-241l114 114-126 52-41-40z" horiz-adv-x="1024" />
<glyph glyph-name="octoloadertwo" unicode="&#xe07b;" d="m758 384v140l252 104v-349z m189 151l-126-53v-57l126-52v162z m-313 148l105 251 248-246-253-105z m-199 23l-104 253h349l-105-253h-140z m-159-123l-252 105 247 247 105-252z m-26 241l-115-115 126-52 41 40z m3-440l-253-105v349l253-104v-140z m-190 151v-162l126 52v57z m313-309l-105-253-247 247 253 105z m-126-142l52 126-41 40-126-52z m325 117l105-252h-349l104 252h140z m11-189l-52 126h-57l-53-126h162z m148 313l253-105-248-247-105 253z m27-241l114 114-126 52-41-40z" horiz-adv-x="1024" />
<glyph glyph-name="octoloaderthree" unicode="&#xe07c;" d="m758 384v140l252 104v-349z m-124 299l105 251 248-246-254-105z m-199 23l-104 253h349l-105-253h-140z m-158-123l-252 105 246 247 105-252z m-27 241l-115-115 126-52 41 40z m3-440l-253-105v349l253-104v-140z m-190 151v-162l126 52v57z m313-309l-105-253-247 247 252 105z m-126-142l52 126-41 40-126-52z m325 117l105-252h-349l104 252h140z m11-189l-52 126h-57l-53-126h162z m147 313l253-105-247-247-105 253z m28-241l114 114-126 52-41-40z" horiz-adv-x="1024" />
<glyph glyph-name="octoloaderfour" unicode="&#xe07d;" d="m758 384v140l252 105v-350z m-124 299l105 252 248-247-253-105z m-199 23l-104 253h349l-105-253h-140z m-159-123l-252 105 247 247 105-252z m-26 241l-115-115 126-52 41 40z m3-440l-253-105v350l253-105v-140z m-190 151v-162l126 52v57z m313-309l-105-253-247 247 252 106z m-126-142l52 126-41 40-126-52z m325 117l105-252h-349l104 252h140z m11-189l-52 126h-57l-53-126h162z m148 314l253-106-248-247-105 253z" horiz-adv-x="1024" />
<glyph glyph-name="octoloaderfive" unicode="&#xe07e;" d="m758 384v140l252 105v-350z m-124 299l105 252 248-247-253-105z m-199 23l-104 253h349l-105-253h-140z m-159-123l-252 105 247 247 105-252z m-26 241l-115-115 126-52 41 40z m3-440l-253-105v350l253-105v-140z m-190 151v-162l126 52v57z m313-309l-105-253-247 247 252 106z m-126-142l52 126-41 40-126-52z m325 117l105-252h-349l104 252h140z m158 125l254-106-248-247-105 253z" horiz-adv-x="1024" />
<glyph glyph-name="octoloadersix" unicode="&#xe07f;" d="m758 384v140l252 104v-349z m-124 299l105 251 248-246-253-105z m-199 23l-104 253h349l-105-253h-140z m-158-123l-253 105 247 247 105-252z m-27 241l-114-115 125-52 41 40z m3-440l-253-105v349l253-104v-140z m-190 151v-162l126 52v57z m313-309l-105-253-247 247 253 105z m199-25l105-252h-349l104 252h140z m159 124l253-105-248-247-105 253z" horiz-adv-x="1024" />
<glyph glyph-name="octoloaderseven" unicode="&#xe080;" d="m758 384v140l252 104v-349z m-124 299l105 251 247-246-252-106z m-199 23l-104 253h349l-105-253h-140z m-158-123l-252 105 246 246 105-251z m-27 241l-114-115 125-52 41 40z m3-440l-253-105v349l253-104v-140z m123-159l-105-252-246 247 252 105z m199-24l105-252h-349l104 252h140z m159 124l252-105-247-247-105 252z" horiz-adv-x="1024" />
<glyph glyph-name="octoloaderfull" unicode="&#xe081;" d="m758 384v140l252 104v-349z m-124 299l105 251 247-246-252-106z m-199 23l-104 253h349l-105-253h-140z m-158-123l-252 105 247 246 105-251z m-24-199l-253-105v349l253-104v-140z m124-159l-105-252-247 247 252 105z m198-24l105-252h-349l104 252h140z m159 124l252-105-247-247-105 252z" horiz-adv-x="1024" />
<glyph glyph-name="selectionsymbol" unicode="&#xe082;" d="m699 259q-13-14-31-24 27-46 27-97v0 0q0-79-56-134t-134-55-134 55-55 134q0 22 7 47l119-47q0-26 18-44t45-19 45 18 18 45q0 28-16 44t-51 38-59 44l-126 127q-31 30-47 62t-16 64q0 76 57 132 14 14 31 26-25 43-25 95 0 78 55 134t134 55 134-55 56-134q0-22-7-48l-120 48q0 26-18 44t-45 19-45-19-18-44q0-28 16-45t52-38 58-44l127-126q34-35 48-61t15-65q0-73-59-132z m-87 181l-122 121q-19 20-47 20t-46-19-19-47 20-46l121-122q20-20 47-20t46 20 18 46-18 47z" horiz-adv-x="1024" />
<glyph glyph-name="infinityalt" unicode="&#xe083;" d="m726 138q-117 0-201 83t-83 201q0 65-46 112t-112 46-111-46-47-112 47-111 111-47q66 0 113 48 21-62 63-113-77-61-176-61-117 0-201 83t-83 201 83 201 201 83 201-83 83-201q0-65 47-111t111-47 112 47 46 111-46 112-112 46q-66 0-112-47-22 62-63 112 77 61 175 61 118 0 201-83t83-201-83-201-201-83z" horiz-adv-x="1024" />
<glyph glyph-name="pullrequest" unicode="&#xe084;" d="m821-51q-52 0-89 37t-37 89q0 34 17 63t46 45v397q0 79-56 134t-134 56v-64l-189 127 189 126v-63q86 0 159-43t115-115 42-158v-397q29-16 46-45t17-63q0-52-37-89t-89-37z m-1 189q-26 0-44-18t-18-45 18-44 44-19 45 19 19 44-19 45-45 18z m-504-63q0-52-37-89t-90-37-89 37-37 89q0 34 17 63t46 45v541q-28 17-46 46t-17 63q0 52 37 89t89 37 90-37 37-89q0-35-18-63t-45-46v-541q28-16 45-45t18-63z m-127 821q-26 0-44-18t-19-45 19-45 44-18 45 18 19 45-19 45-45 18z m0-758q-26 0-44-18t-19-45 19-44 44-19 45 19 19 44-19 45-45 18z" horiz-adv-x="1024" />
<glyph glyph-name="projectforkdelete" unicode="&#xe085;" d="m938 801l63-63q9-9 9-21t-9-21l-42-44q-9-9-21-9t-21 9l-65 64-64-65q-9-9-21-9t-21 9l-44 43q-8 9-8 22t8 21l66 64-66 65q-8 8-8 21t8 22l44 42q9 9 21 9t21-9l64-64 65 63q8 9 21 9t21-9l42-42q9-9 9-22t-9-21z m-742-623q57-38 57-103 0-52-37-89t-90-37-89 37-37 89q0 34 17 63t46 45v713q0 26 18 45t45 18 45-18 18-45v-365q77 120 192 199t251 103v-127q-172-38-291-180t-145-348z m-69-40q-26 0-45-18t-19-45 18-44 45-19 45 19 18 44-18 45-44 18z" horiz-adv-x="1024" />
<glyph glyph-name="projectforkprivate" unicode="&#xe086;" d="m979 580h-253q-13 0-22 9t-9 23v221q0 52 46 89t111 37 112-37 46-89v-221q0-13-9-23t-22-9z m-127 316q-39 0-67-18t-27-45v-63h189v63q0 26-27 45t-68 18z m-656-718q57-38 57-103 0-52-37-89t-90-37-89 37-37 89q0 34 17 63t46 45v713q0 25 18 44t45 19 45-19 18-44v-365q77 120 192 199t251 103v-127q-172-38-291-180t-145-348z m-69-40q-26 0-45-18t-19-45 18-44 45-19 45 19 18 44-18 45-44 18z" horiz-adv-x="1024" />
<glyph glyph-name="commit" unicode="&#xe087;" d="m947 391h-132q-23-109-110-181t-200-72-200 72-110 181h-132q-26 0-45 18t-18 45 18 45 45 18h132q23 109 110 181t200 72 200-72 110-181h132q27 0 45-18t18-45-18-45-45-18z m-442 252q-79 0-134-55t-55-134 55-134 134-56 134 56 56 134-56 134-134 55z" horiz-adv-x="1024" />
<glyph glyph-name="htmlfile" unicode="&#xe088;" d="m883-51h-757q-26 0-45 18t-18 45v883q0 26 18 45t45 18h442v-347q0-13 9-23t23-9h346v-1-566q0-27-18-45t-45-18z m-453 434q12 12 12 29t-12 30-28 13-29-13l-173-147q-12-13-12-30t12-30l173-147q12-13 29-13t28 12 12 30-12 30l-144 117z m379-88l-172 147q-11 13-28 13t-29-13-12-30 12-29l143-119-143-117q-12-12-12-30t12-30 29-12 28 13l172 147q13 13 13 30t-13 30z m-177 664q25 0 43-18l252-253q19-19 19-46h-314v317z" horiz-adv-x="1024" />
<glyph glyph-name="pushalt" unicode="&#xe089;" d="m505 454q-137 0-253 17t-184 45-68 64v126q0 8 6 19 61-36 200-59t299-23 300 23 199 59q6-11 6-19v-126q0-35-67-64t-184-45-254-17z m0 252q-137 0-253 17t-184 46-68 64 68 63 184 46 253 17 254-17 184-46 67-63-67-64-184-46-254-17z m-47-330q19 16 47 16t47-16l186-148q19-16 19-38t-20-37-46-15-47 16l-76 60v-202q0-26-18-45t-44-18-45 18-19 45v203l-77-61q-20-16-47-16t-46 15-19 37 18 38z" horiz-adv-x="1024" />
<glyph glyph-name="pullalt" unicode="&#xe08a;" d="m505 454q-137 0-253 17t-184 45-68 64v126q0 8 6 18 61-35 200-58t299-23 300 23 199 58q6-10 6-18v-126q0-35-67-64t-184-45-254-17z m0 252q-137 0-253 17t-184 46-68 64 68 63 184 46 253 17 254-17 184-46 67-63-67-64-184-46-254-17z m-140-520l77-61v202q0 26 18 45t45 19 45-19 18-45v-201l76 60q20 16 47 16t46-16 20-37-19-37l-186-148q-20-15-47-15t-47 15l-187 148q-18 15-18 37t19 37 46 16 47-16z" horiz-adv-x="1024" />
<glyph glyph-name="photonineframes" unicode="&#xe08b;" d="m947-51h-884q-26 0-44 18t-19 45v884q0 26 19 45t44 18h884q27 0 45-18t18-45v-884q0-26-18-45t-45-18z m0 252h-110q-7 0-12 5t-4 11v32q0 6 4 11t12 4h110v379h-110q-7 0-12 5t-4 11v32q0 6 4 11t12 4h110v190h-189v-111q0-7-5-11t-11-4h-32q-7 0-11 4t-4 11v111h-379v-111q0-7-5-11t-11-4h-32q-7 0-11 4t-4 11v111h-190v-190h111q7 0 11-4t4-11v-32q0-7-4-11t-11-5h-111v-379h111q7 0 11-4t4-11v-32q0-7-4-11t-11-5h-111v-189h190v110q0 7 4 12t11 4h32q7 0 11-4t5-12v-110h379v110q0 7 4 12t11 4h32q7 0 11-4t5-12v-110h189v189z m-205 0h-32-63q-7 0-11 5t-4 11v32q0 6 4 11t11 4h48v48q0 7 4 11t11 4h32q7 0 11-4t5-11v-63-32q0-7-5-11t-11-5z m0 190h-32q-7 0-11 4t-4 11v95q0 7 4 12t11 4h32q7 0 11-4t5-12v-95q0-7-5-11t-11-4z m0 189h-32q-7 0-11 5t-4 11v47h-48q-7 0-11 5t-4 11v32q0 6 4 11t11 4h63 32q7 0 11-4t5-11v-32-63q0-7-5-11t-11-5z m-189-379h-95q-7 0-12 5t-4 11v32q0 6 4 11t12 4h95q6 0 11-4t4-11v-32q0-7-4-11t-11-5z m0 442h-95q-7 0-12 5t-4 11v32q0 6 4 11t12 4h95q6 0 11-4t4-11v-32q0-7-4-11t-11-5z m-190-442h-63-32q-7 0-11 5t-4 11v32 63q0 7 4 11t11 4h32q7 0 11-4t5-11v-48h47q7 0 11-4t5-11v-32q0-7-5-11t-11-5z m0 442h-47v-47q0-7-5-11t-11-5h-32q-7 0-11 5t-4 11v63 32q0 6 4 11t11 4h32 63q7 0 11-4t5-11v-32q0-7-5-11t-11-5z m-95-126h32q7 0 11-4t5-12v-95q0-7-5-11t-11-4h-32q-7 0-11 4t-4 11v95q0 7 4 12t11 4z" horiz-adv-x="1024" />
<glyph glyph-name="wetfloor" unicode="&#xe08c;" d="m947 75l-568 126q-44 8-63 32l-95 158-32-253q0-26-18-44t-45-19-45 18-18 45l53 372q14 74 42 102 9 8 52 45t51 46l118 98v95q0 24 18 44t45 19q29 0 46-19t17-44v-126q-1-4-6-16t-14-26-11-22l-116-93q-2-3 4-11t11-15l6-7 126-158 133 126q6 10 10 15 19 18 44 18t43-18l194-193q18-19 18-44t-18-43-43-19-43 18l-148 148-158-134 410-95q27 0 45-18t18-44-18-45-45-19z m-821 631q-52 0-89 37t-37 90 37 89 89 37 90-37 37-89-37-90-90-37z m158-631h190q12 0 22-9t9-23-9-22-22-9h-190q-13 0-22 9t-9 22 9 23 22 9z m316-63h316q12 0 22-10t9-22-9-22-22-9h-316q-13 0-22 9t-10 22 10 22 22 10z" horiz-adv-x="1024" />
<glyph glyph-name="instagramfour" unicode="&#xe08d;" d="m316 454q0 79 55 134t134 55 134-55 56-134-56-134-134-56-134 56-55 134z m694 63v-442q0-52-37-89t-89-37h-758q-52 0-89 37t-37 89v758q0 52 37 89t89 37h758q52 0 89-37t37-89v-190h-252q-45 58-111 92t-142 35-142-35-110-92h-253v-126h195q-6-32-6-63 0-86 43-159t115-115 158-42 159 42 114 115 43 159q0 31-6 63h195z" horiz-adv-x="1024" />
<glyph glyph-name="circleinstagram" unicode="&#xe08e;" d="m505-51q-102 0-196 40t-162 107-107 161-40 197 40 196 107 161 162 108 196 40 197-40 161-108 107-161 40-196-40-197-107-161-161-107-197-40z m253 694q0 26-18 45t-45 18h-379q-26 0-45-18t-18-45v-63h112q57 63 140 63t140-63h113v63z m-379-189q0-52 37-90t89-37 89 37 38 90-38 89-89 37-89-37-37-89z m379 63h-75q12-33 12-63 0-79-56-134t-134-56-134 56-55 134q0 30 12 63h-75v-253q0-26 18-45t45-18h379q26 0 45 18t18 45v253z" horiz-adv-x="1024" />
<glyph glyph-name="videocamerathree" unicode="&#xe08f;" d="m972 206l-214 183v-125q0-52-37-89t-89-37h-506q-52 0-89 37t-37 89v379q0 53 37 89t89 38h506q52 0 89-38t37-89v-124l214 182q16 13 38-7v-481q-22-20-38-7z m-403 437q-26 0-45-18t-19-44 19-45 45-19 44 19 19 45-19 44-44 18z" horiz-adv-x="1024" />
<glyph glyph-name="subtitles" unicode="&#xe090;" d="m884 75h-758q-52 0-89 37t-37 89v505q0 53 37 90t89 37h758q52 0 89-37t37-90v-505q0-52-37-89t-89-37z m-632 505q26 0 45-19t19-44h126q0 79-55 134t-134 55-135-55-55-134v-126q0-79 55-135t135-55 134 55 55 135h-126q0-27-19-45t-45-19-44 19-19 45v126q0 26 19 44t44 19z m505 0q26 0 45-19t19-44h126q0 79-55 134t-134 55-134-55-56-134v-126q0-79 56-135t134-55 134 55 55 135h-126q0-27-19-45t-45-19-44 19-18 45v126q0 26 18 44t44 19z" horiz-adv-x="1024" />
<glyph glyph-name="subtitlesoff" unicode="&#xe091;" d="m921 81l-96 133q54 21 88 69t34 108h-126q0-27-18-45t-45-19q-7 0-15 2l-48 67v121q0 26 18 44t45 19 44-19 19-44h126q0 78-55 134t-134 55q-65 0-116-40t-67-102l-191 269h500q52 0 89-37t37-90v-505q0-42-25-75t-64-45z m-56-114q-18-18-45-18t-45 18l-631 883q-19 19-19 46t19 45 45 19 45-19l631-884q19-19 19-45t-19-45z m-612 360q-26 0-45 19t-19 45v126q0 26 19 44t45 19q6 0 14-2l135-187h-86q0-27-19-45t-44-19z m-190 190v-126q0-79 55-135t135-55q65 0 116 40t66 102l191-268h-500q-52 0-89 37t-37 89v505q0 43 25 76t65 45l95-133q-54-21-88-70t-34-107z" horiz-adv-x="1024" />
<glyph glyph-name="compress" unicode="&#xe092;" d="m979 770h-190q-2 0 38-41t80-80 40-37v-259q0-11-7-18t-19-8h58q13 0 22-9t9-22-9-22-22-10h-158q0-25-18-44t-45-19h-442v-63h31q13 0 22-9t10-22v-32h95q12 0 22-9t9-23-9-22-22-9h-95v-32q0-13-10-22t-22-9h-189q-13 0-22 9t-10 22v32h-94q-13 0-23 9t-9 22 9 23 23 9h94v32q0 12 10 22t22 9h31v758q0 26 19 45t44 18 45-18 19-45h442q26 0 45-18t18-45h158q13 0 22-10t9-22-9-22-22-9z m-385 0h-57-221v-443h221 57q-11 0-18 8t-8 18v391q0 11 8 18t18 8z m164-64h-126v-315h252v189h-126v126z" horiz-adv-x="1024" />
<glyph glyph-name="baby" unicode="&#xe093;" d="m868 345q-17-18-42-18t-42 18l-152 153v-171h-252v171l-153-153q-18-18-42-18t-41 18-18 42 17 41l142 152q63 63 221 63t221-63l141-152q17-17 17-41t-17-42z m-362 361q-53 0-90 37t-37 90 37 89 90 37 89-37 37-89-37-90-89-37z m-299-522q3 2 13 8l116 99 124-89-111-73 75-76q18-18 18-43t-18-43-43-18-44 17l-130 131q-18 18-18 43t18 44z m380-131l75 76-110 73 123 89 116-99q10-6 13-8 18-18 18-44t-18-43l-130-131q-18-17-44-17t-43 17-18 44 18 43z" horiz-adv-x="1024" />
<glyph glyph-name="ducky" unicode="&#xe094;" d="m884 770q19 1 35 1t42-1 49 0q0-16-6-30t-19-22-24-15-31-10-28-7-26-4q-7-26-31-82t-24-83q0-17 13-38t31-42 38-47 31-57 13-69q0-92-58-165t-158-111-226-39q-77 0-149 22t-137 69-114 113-77 160-28 204q0-42 39-72t102-42 143-12q47 0 115 21t119 51 50 54q0 21-19 48t-44 51-43 57-20 65q0 92 65 156t156 65q63 0 116-34t80-87q38 7 81 25t70 33q0-15-7-30t-15-25-26-23-26-18-28-17-24-13z m-158 63q-13 0-22-19t-9-45 9-44 22-19 22 19 10 44-10 45-22 19z" horiz-adv-x="1024" />
<glyph glyph-name="handswipe" unicode="&#xe095;" d="m884-51h-379q-21 0-51 34t-52 80-23 76q-1 24-16 80t-32 130-15 136v32q0 27 18 45t45 18q22 0 38-13t22-33q3 27 3 46 0 57 2 111t8 120 20 107 33 41q45 0 54-45t9-208q0-36 7-63t16-38 18-19 16-6h7v0q0 27 18 45t45 18q63 0 63-126 0 27 18 45t45 18 45-18 18-45v-63q0 26 18 45t45 18 45-18 18-45v-284q0-46-7-82t-18-59-24-39-27-24-25-12-18-5-7 0z m-40 698q-9-9-23 4v119h-158q-13 0-22 9t-9 22 9 22 22 10h158v119q14 12 23 4l160-143q6-5 6-12t-6-12z m-497 123h-158v-119q-13-13-22-4l-162 142q-5 5-5 12t5 12l162 143q9 8 22-4v-119h158q13 0 22-10t10-22-10-22-22-9z" horiz-adv-x="1024" />
<glyph glyph-name="swipeup" unicode="&#xe096;" d="m884-51h-379q-21 0-51 34t-52 80-24 76q0 24-16 80t-31 130-15 136v32q0 27 18 45t45 18q22 0 38-13t22-33q3 27 3 46 0 58 2 112t8 119 19 107 34 41q45 0 54-44t9-209q0-36 7-63t16-38 18-18 16-7h7v0q0 27 18 45t45 18q63 0 63-126 0 27 18 45t44 18 45-18 19-45v-63q0 26 18 45t45 18 45-18 18-45v-284q0-46-7-82t-18-59-24-39-27-24-25-12-18-5h-7z m-695 821v-285q0-13-9-22t-23-9-22 9-9 22v285h-118q-13 13-5 23l143 161q5 5 12 5t12-5l142-161q9-10-4-23h-119z" horiz-adv-x="1024" />
<glyph glyph-name="swipedown" unicode="&#xe097;" d="m884-51h-379q-21 0-51 34t-52 80-24 76q0 24-16 80t-31 130-15 136v32q0 27 18 45t45 18q22 0 38-13t22-33q3 27 3 46 0 58 2 112t8 120 19 107 34 40q45 0 54-44t9-209q0-36 7-63t16-38 18-18 16-7h7v0q0 27 18 45t45 18q63 0 63-126 0 27 18 45t44 18 45-18 19-45v-63q0 26 18 45t45 18 45-18 18-45v-284q0-46-7-82t-18-59-24-39-27-24-25-12-18-5-7 0z m-714 511q-5-6-12-6t-12 6l-143 161q-8 8 5 22h118v284q0 14 9 23t22 9 23-9 9-23v-284h119q13-14 4-22z" horiz-adv-x="1024" />
<glyph glyph-name="twofingerswipedown" unicode="&#xe098;" d="m884-51h-379q-29 0-60 50t-48 109-18 93v253q0 26 18 45t45 18q19 0 35-11l-35 384q-2 28 15 48t42 21 46-16 20-46l35-317q5-10 14-21t18-11l33 349q2 27 21 46t45 16 43-21 15-48q-31-184-31-373 0 27 18 45t44 18 45-18 19-45v-63q0 26 18 45t45 18 45-18 18-45v-221q0-62-13-114t-31-82-38-51-31-30z m-714 511q-5-6-12-6t-12 6l-143 161q-8 8 5 22h118v284q0 14 9 23t22 9 23-9 9-23v-284h120q12-14 3-22z" horiz-adv-x="1024" />
<glyph glyph-name="twofingerswipeup" unicode="&#xe099;" d="m884-51h-379q-29 0-60 50t-48 109-18 93v253q0 26 18 45t45 18q19 0 35-11l-35 384q-2 28 15 48t42 21 46-16 20-46l35-317q5-10 14-21t18-11l33 349q2 27 21 46t45 16 43-21 15-48q-31-184-31-373 0 27 18 45t44 18 45-18 19-45v-63q0 26 18 45t45 18 45-18 18-45v-221q0-174-95-262-17-16-31-22z m-695 821v-285q0-13-9-22t-23-9-22 9-9 22v285h-118q-13 13-5 23l143 161q5 5 12 5t12-5l142-161q9-10-4-23h-119z" horiz-adv-x="1024" />
<glyph glyph-name="doubletap" unicode="&#xe09a;" d="m821-51h-379q-21 0-51 34t-53 80-22 76q-1 24-17 80t-31 130-15 136v32q0 27 18 45t45 18q21 0 38-13t22-33q3 27 3 46 0 57 2 111t8 120 19 107 34 41q44 0 54-45t9-208q0-37 7-64t15-38 19-18 15-6h7v0q0 27 19 45t45 18q63 0 63-126 0 27 18 45t44 18 45-18 19-45v-63q0 26 18 45t45 18 44-18 19-45v-284q0-46-7-82t-18-59-25-39-26-24-25-12-18-5-7 0z m-73 726q10 43 10 86 0 89-38 167l56 31q45-92 45-198 0-61-15-118z m-119 65q3 17 3 30 0 53-19 98l52 30q30-63 30-137 0-27-4-54z m-374 0l-62-33q-4 27-4 54 0 74 30 137l52-30q-18-45-18-98 0-13 2-30z m-119-65l-58-32q-15 57-15 118 0 106 46 198l55-31q-38-78-38-167 0-43 10-86z" horiz-adv-x="1024" />
<glyph glyph-name="dribbblealt" unicode="&#xe09b;" d="m758 454q-70 0-143-14-27 76-61 142 92 43 164 110t113 148q84-71 131-172t48-214q0-19-2-45-120 45-250 45z m-234 183q-106 183-252 265 110 57 233 57 149 0 274-81-37-77-103-139t-152-102z m-57-21q-104-36-214-36-115 0-224 40 52 150 180 243 150-67 258-247z m-214-99q128 0 244 42 32-63 57-134-140-40-244-130t-151-208q-75 70-117 165t-42 202q0 53 11 105 119-42 242-42z m320-152q56-188 57-400-63-16-125-16-162 0-294 95 38 113 134 198t228 123z m61 14q63 12 124 12 124 0 241-46-27-122-109-218t-196-142q-5 210-60 394z" horiz-adv-x="1024" />
<glyph glyph-name="circlecallmissed" unicode="&#xe09c;" d="m505-51q-102 0-196 40t-162 107-107 161-40 197 40 196 107 161 162 108 196 40 197-40 161-108 107-161 40-196-40-197-107-161-161-107-197-40z m243 698q10 10 10 25t-11 25-24 9-24-9l-67-68-68 68q-10 9-24 9t-25-9-10-25 10-25l67-67-67-67q-10-10-10-25t10-24 25-10 24 10l68 67 67-67q9-10 24-10t24 10 11 24-10 25l-67 67z m10-320h-126l-64-63q-63 17-149 104t-103 149l63 63v126q-24 34-51 53t-42 5l-66-67q-54-54-16-170t148-226 226-148 171 16l66 66q14 14-5 45t-52 47z" horiz-adv-x="1024" />
<glyph glyph-name="circlecallincoming" unicode="&#xe09d;" d="m505-51q-102 0-196 40t-162 107-107 161-40 197 40 196 107 161 162 108 196 40 197-40 161-108 107-161 40-196-40-197-107-161-161-107-197-40z m243 698q10 10 10 25t-11 25-24 9-24-9l-131-131v109q0 13-9 22t-22 9-22-9-10-22v-190q0-13 10-22t22-9h1 188q13 0 22 9t10 22-10 22-22 10h-108z m10-320h-126l-64-63q-63 17-149 104t-103 149l63 63v126q-24 34-51 53t-42 5l-66-67q-54-54-16-170t148-226 226-148 171 16l66 66q14 14-5 45t-52 47z" horiz-adv-x="1024" />
<glyph glyph-name="circlecalloutgoing" unicode="&#xe09e;" d="m505-51q-102 0-196 40t-162 107-107 161-40 197 40 196 107 161 162 108 196 40 197-40 161-108 107-161 40-196-40-197-107-161-161-107-197-40z m253 726q0 13-10 22t-22 9h-1-188q-13 0-22-9t-10-22 10-22 22-10h108l-130-130q-10-10-10-25t10-24 25-10 24 10l131 130v-109q0-13 9-22t22-9 22 9 10 22v190z m0-348h-126l-64-63q-63 17-149 104t-103 149l63 63v126q-24 34-51 53t-42 5l-66-67q-54-54-16-170t148-226 226-148 171 16l66 66q14 14-5 45t-52 47z" horiz-adv-x="1024" />
<glyph glyph-name="circledownload" unicode="&#xe09f;" d="m505-51q-137 0-253 67t-184 184-68 254q0 102 40 196t107 161 162 108 196 40 197-40 161-108 107-161 40-196q0-137-67-254t-184-184-254-67z m-158 189h316q13 0 22 9t10 23-10 22-22 9h-316q-13 0-22-9t-9-22 9-23 22-9z m440 442h-155v126q0 27-18 45t-45 19h-127q-26 0-44-19t-19-45v-126h-156q-23 0-31-25t6-38l277-239q12-14 31-14t31 14l275 239q14 14 6 38t-31 25z" horiz-adv-x="1024" />
<glyph glyph-name="circleupload" unicode="&#xe0a0;" d="m505-51q-102 0-196 40t-162 107-107 161-40 197 40 196 107 161 162 108 196 40 197-40 161-108 107-161 40-196-40-197-107-161-161-107-197-40z m-158 189h316q13 0 22 9t10 23-10 22-22 9h-316q-13 0-22-9t-9-22 9-23 22-9z m465 379l-275 239q-13 14-31 14t-31-14l-277-239q-13-14-6-39t31-24h156v-127q0-26 19-44t44-19h127q26 0 45 19t18 44v127h155q23 0 31 24t-6 39z" horiz-adv-x="1024" />
<glyph glyph-name="minismile" unicode="&#xe0a1;" d="m1010 327q0-92-68-165t-183-111-254-39-254 39-183 111-68 165q0 27 18 45t45 19 45-19 18-45q0-46 51-89t139-72 189-28q102 0 190 27t139 71 50 91q0 27 18 45t45 19 45-19 18-45z m-252 253q-53 0-90 46t-36 112 36 111 90 47 89-47 37-111-37-112-89-46z m-505 0q-53 0-90 46t-37 112 37 111 90 47 89-47 37-111-37-112-89-46z" horiz-adv-x="1024" />
<glyph glyph-name="minisad" unicode="&#xe0a2;" d="m947 12q-26 0-45 19t-18 44q0 48-50 92t-139 70-190 27q-101 0-189-28t-139-71-51-90q0-26-18-44t-45-19-45 19-18 44q0 93 68 165t183 112 254 39 254-39 183-112 68-165q0-26-18-44t-45-19z m-189 568q-53 0-90 46t-36 112q0 64 19 111t44 47q34 0 79-29t77-74 33-87q0-62-36-94t-90-32z m-505 0q-56 0-91 32t-36 94q0 42 33 87t77 74 80 29q24 0 44-47t19-111q0-65-37-112t-89-46z" horiz-adv-x="1024" />
<glyph glyph-name="minilaugh" unicode="&#xe0a3;" d="m1010 391q0-72-35-140t-98-121-160-86-212-32-212 32-160 86-98 121-35 140q0 26 18 45t45 18h884q27 0 45-18t18-45z m-505-253q73 0 136 17t107 45 74 60 47 67h-727q17-34 47-67t74-60 107-45 135-17z m253 442q-53 0-90 46t-36 112 36 111 90 47 89-47 37-111-37-112-89-46z m-505 0q-53 0-90 46t-37 112 37 111 90 47 89-47 37-111-37-112-89-46z" horiz-adv-x="1024" />
<glyph glyph-name="minigrin" unicode="&#xe0a4;" d="m1010 391q0-72-35-140t-98-121-160-86-212-32-212 32-160 86-98 121-35 140q0 26 19 45t44 18h884q26 0 45-18t18-45z m-868-64q17-34 47-67t74-60 107-45 135-17q73 0 136 17t107 45 74 60 47 67h-727z m729 268q-14-15-33-15t-33 15l-143 96q-11 3-18 11-14 15-14 36t14 36q7 7 18 11l143 97q14 15 33 15t33-15 13-36-14-36l-106-72 106-71q14-15 14-36t-13-36z m-523 96l-143-96q-14-15-33-15t-32 15-14 36 14 36l107 71-107 72q-14 15-14 36t14 36 32 15 33-15l143-97q11-4 18-11 14-14 14-36t-14-36q-7-8-18-11z" horiz-adv-x="1024" />
<glyph glyph-name="miniangry" unicode="&#xe0a5;" d="m947 12q-26 0-45 19t-18 44q0 48-50 92t-139 70-190 27q-101 0-189-28t-139-71-51-90q0-26-18-44t-45-19-45 19-18 44q0 93 68 165t183 112 254 39 254-39 183-112 68-165q0-26-18-44t-45-19z m-76 583q-14-15-33-15t-33 15l-143 96q-11 3-18 11-14 15-14 36t14 36q7 7 18 11l143 97q14 15 33 15t33-15 13-36-14-36l-106-72 106-71q14-15 14-36t-13-36z m-523 96l-143-96q-14-15-33-15t-32 15-14 36 14 36l107 71-107 72q-14 15-14 36t14 36 32 15 33-15l143-97q11-4 18-11 14-14 14-36t-14-36q-7-8-18-11z" horiz-adv-x="1024" />
<glyph glyph-name="minitongue" unicode="&#xe0a6;" d="m938 238q0-121-74-205t-178-84-179 84-74 205h-361q-30 0-51 20t-21 51 21 52 51 21h866q30 0 51-21t21-52-21-51-51-20z m-361 0q0-61 32-103t76-42 77 42 32 103h-217z m217 360q-60 0-102 53t-43 127 43 128 102 53 102-53 42-128-42-127-102-53z m-577 0q-60 0-103 53t-42 127 42 128 103 53 102-53 42-128-42-127-102-53z" horiz-adv-x="1024" />
<glyph glyph-name="minitonguealt" unicode="&#xe0a7;" d="m938 238q0-121-74-205t-178-84-179 84-74 205h-361q-30 0-51 20t-21 51 21 52 51 21h866q30 0 51-21t21-52-21-51-51-20z m-361 0q0-61 32-103t76-42 77 42 32 103h-217z m346 378q-15-17-37-17t-38 17l-164 109q-12 4-20 13-15 17-15 41t15 41q8 9 20 14l164 109q15 17 38 17t37-17 15-41-15-41l-123-82 123-82q15-17 15-41t-15-40z m-596 109l-165-109q-15-17-37-17t-38 17-15 40 16 41l122 82-122 82q-16 17-16 41t15 41 38 17 37-17l165-109q11-5 19-14 15-17 15-41t-15-41q-8-9-19-13z" horiz-adv-x="1024" />
<glyph glyph-name="miniwink" unicode="&#xe0a8;" d="m1010 327q0-92-68-165t-183-111-254-39-254 39-183 111-68 165q0 27 19 45t45 19 44-19 18-45q0-46 51-89t139-72 189-28q102 0 190 27t139 71 50 91q0 27 19 45t45 19 44-19 18-45z m-189 316h-189q-26 0-45 19t-19 44 19 45 45 19h189q27 0 45-19t18-45-18-44-45-19z m-568-63q-53 0-90 46t-37 112 37 111 90 47 89-47 37-111-37-112-89-46z" horiz-adv-x="1024" />
<glyph glyph-name="minitonguewink" unicode="&#xe0a9;" d="m938 238q0-121-74-205t-178-84-179 84-74 205h-361q-30 0-51 20t-21 51 21 52 51 21h866q30 0 51-21t21-52-21-51-51-20z m-361 0q0-61 32-103t76-42 77 42 32 103h-217z m289 432h-217q-29 0-51 21t-21 51 21 52 51 21h217q30 0 51-21t21-52-21-51-51-21z m-649-72q-60 0-103 53t-42 127 42 128 103 53 102-53 42-128-42-127-102-53z" horiz-adv-x="1024" />
<glyph glyph-name="miniconfused" unicode="&#xe0aa;" d="m726 454q-65 0-111 56t-47 134 47 133 111 56 112-56 46-133-46-134-112-56z m-473 0q-53 0-90 46t-37 112 37 111 90 47 89-47 37-111-37-112-89-46z m-64-253h632q27 0 45-18t18-44-18-45-45-19h-632q-26 0-44 19t-19 45 19 44 44 18z" horiz-adv-x="1024" />
<glyph glyph-name="soundright" unicode="&#xe0ab;" d="m947 391l53-134q9-9 9-23t-9-23-23-10-24 10l-69 180h-63v-158q0-14-9-23t-23-9-22 9-9 23v441q0 14 9 23t22 9v0 0h1v0h1 1 1 1 1 1 1 1 1 1 1 1 1 1 1 1 1 1 1 1 1 1 2 1 1 1 2 1 1 1 2 1 2 1 1 2 1 2 1 2 1 2 1 2 1 2 1 1 3 0 3 0 2 2 1 2 2 2 1 2 2 2 1 2 9q52 0 89-37t37-89v-64q0-38-18-72t-45-53z m0 189q0 26-19 44t-44 19h-63v-189h63q26 0 44 18t19 45v63z m-390-620l-237 240h-4v506h4l237 240q30 30 75-16v-955q-45-45-75-15z m-557 303v380q0 26 18 45t45 18h190v-506h-190q-26 0-45 19t-18 44z" horiz-adv-x="1024" />
<glyph glyph-name="soundleft" unicode="&#xe0ac;" d="m979 201h-190q-13 0-22 9t-9 23v442q0 13 9 22t22 9 23-9 9-22v-411h158q13 0 22-9t9-23-9-22-22-9z m-422-241l-237 240h-4v506h4l237 240q30 30 75-16v-955q-45-45-75-15z m-557 303v380q0 26 18 45t45 18h190v-506h-190q-26 0-45 19t-18 44z" horiz-adv-x="1024" />
<glyph glyph-name="savetodrive" unicode="&#xe0ad;" d="m884-51h-758q-52 0-89 37t-37 89v158q0 32 28 207t67 347 63 172h284v-253h-163q-18 0-24-19t4-31l221-191q11-11 26-11t25 11l220 191q11 11 4 31t-24 19h-162v253h283q24 0 63-172t67-347 28-207v-158q0-52-37-89t-89-37z m63 252q0 26-18 45t-45 18h-758q-26 0-45-18t-18-45v-126q0-27 18-45t45-18h758q27 0 45 18t18 45v126z m-758-126q-26 0-44 18t-19 45 19 44 44 19 45-19 19-44-19-45-45-18z" horiz-adv-x="1024" />
<glyph glyph-name="layerorderup" unicode="&#xe0ae;" d="m972 407l-373-186q-40-20-94-20t-94 20l-372 186q-39 20-39 47t39 47l96 47 69-34-141-60 442-190 442 190-141 60 69 34 97-47q38-20 38-47t-38-47z m0 253l-373-186q-40-20-94-20t-94 20l-372 186q-39 20-39 47t39 47l372 186q40 19 94 19t94-19l373-186q38-20 38-47t-38-47z m-933-412l96 48 69-35-141-60 442-189 442 189-141 60 69 35 97-48q38-19 38-47t-38-46l-373-187q-40-19-94-19t-94 19l-372 187q-39 19-39 46t39 47z" horiz-adv-x="1024" />
<glyph glyph-name="layerorderdown" unicode="&#xe0af;" d="m972 407l-373-186q-40-20-94-20t-94 20l-372 186q-39 20-39 47t39 46l96 48 69-34-141-60 442-190 442 190-141 60 69 34 97-48q38-19 38-46t-38-47z m0 253l-373-186q-40-20-94-20t-94 20l-372 186q-39 20-39 47t39 47l372 186q40 19 94 19t94-19l373-186q38-20 38-47t-38-47z m-467 236l-442-190 442-189 442 189z m-466-648l96 48 276-138q40-20 94-20t94 20l276 138 97-48q38-19 38-47t-38-46l-373-187q-40-19-94-19t-94 19l-372 187q-39 19-39 46t39 47z" horiz-adv-x="1024" />
<glyph glyph-name="layerorder" unicode="&#xe0b0;" d="m972 407l-373-186q-40-20-94-20t-94 20l-372 186q-39 20-39 47t39 46l96 48 276-138q40-19 94-19t94 19l276 138 97-48q38-19 38-46t-38-47z m0 253l-373-186q-40-20-94-20t-94 20l-372 186q-39 20-39 47t39 47l372 186q40 19 94 19t94-19l373-186q38-20 38-47t-38-47z m-467 236l-442-190 442-189 442 189z m-466-648l96 48 69-35-141-60 442-189 442 189-141 60 69 35 97-48q38-19 38-47t-38-46l-373-187q-40-19-94-19t-94 19l-372 187q-39 19-39 46t39 47z" horiz-adv-x="1024" />
<glyph glyph-name="circledribbble" unicode="&#xe0b1;" d="m505-51q-102 0-196 40t-162 107-107 161-40 197 40 196 107 161 162 108 196 40 197-40 161-108 107-161 40-196-40-197-107-161-161-107-197-40z m305 423q-61 19-147 19-25 0-54-9 19-108 23-217 65 28 112 83t66 124z m-243-228q-3 99-23 209l-39-26q-52-37-82-76t-40-88q58-25 122-25 32 0 62 6z m-378 310q0-78 36-146t97-111q37 115 132 182 37 26 75 43-9 37-19 65-74-34-153-33-87 1-166 33-2-17-2-33z m16 99q77-36 142-36 61 0 136 34-53 109-154 163-90-60-124-161z m300 217q-56 0-112-22 101-54 152-161 90 65 111 144-70 39-151 39z m202-73q-38-106-128-169l-9-6q12-34 24-77 41 9 83 9 71-1 142-25 2 24 2 25 0 72-30 135t-84 108z" horiz-adv-x="1024" />
<glyph glyph-name="squaredribbble" unicode="&#xe0b2;" d="m884-51h-758q-52 0-89 37t-37 89v758q0 52 37 89t89 37h758q52 0 89-37t37-89v-758q0-52-37-89t-89-37z m-74 423q-61 19-147 19-25 0-55-9 20-108 24-217 65 28 111 83t67 124z m-243-228q-3 100-23 209-19-12-39-26-52-37-82-76t-40-88q58-25 122-25 32 0 62 6z m-378 310q0-78 36-146t97-111q37 115 132 182 37 26 75 43-9 38-19 65-74-34-153-33-87 1-166 33-2-17-2-33z m16 98q77-35 142-35 61 0 136 34-53 109-154 163-90-60-124-162z m300 218q-56 0-112-22 101-54 153-161 89 65 110 144-70 39-151 39z m202-73q-38-106-128-169-1-1-9-6 12-34 24-77 41 9 83 9 71-1 142-25 2 23 2 25 0 72-30 135t-84 108z" horiz-adv-x="1024" />
<glyph glyph-name="handexpand" unicode="&#xe0b3;" d="m884-51h-379q-29 0-109 58t-112 100q-34 44-87 79t-94 53-72 32-31 25q0 44 29 69t66 26q19 0 52-10t58-20 79-34q7-2 42-33t53-30q21 0 66 22t85 53 38 52v63q0 86-10 156t-21 105-22 67-10 51q0 3 0 17t0 24 1 23 2 24 6 19 9 14 14 5q52 0 77-41t70-178q7-22 11-34 13-41 29-73t25-42l9-11q14-7 36-19t74-46 79-61q19-19 41-75t22-83v-126q0-46-7-82t-18-59-24-39-27-24-25-12-18-5-7 0z m-474 757q-6 0-20 14t-25 29l-11 14-221-221q56-42 56-57 0-13-9-22t-22-9h-126q-13 0-23 9t-9 22v127q0 12 9 22t23 9q15 0 55-55l221 221q-55 39-55 55 0 13 9 22t22 10h126q13 0 23-10t9-22v-126q0-13-9-22t-23-10z" horiz-adv-x="1024" />
<glyph glyph-name="handpinch" unicode="&#xe0b4;" d="m884-51h-379q-29 0-109 58t-112 100q-34 44-87 79t-93 53-72 32-31 25q0 44 28 69t67 26q19 0 51-10t59-20 78-34q8-2 42-33t53-30q22 0 67 22t84 53 38 52v63q0 86-10 156t-21 105-22 66-10 51v18 23t1 23 3 24 5 19 9 15 14 4q52 0 77-41t70-178q7-22 11-33 13-41 29-73t25-42l9-11q15-8 37-20t74-45 78-61q19-19 41-75t22-83v-126q0-46-7-82t-18-59-24-39-27-24-25-12-18-5h-7z m-442 789q0-14-9-23t-23-9h-126q-13 0-22 9t-9 23v125q0 14 9 23t22 9q7 0 21-14t25-27l9-13 47 45q10 10 23 10t23-10 10-23-10-23l-46-47q0 1 14-10t28-25 14-20z m-283-284q-7 0-21 14t-25 27l-10 15-47-46q-10-10-23-10t-23 10-10 23 10 23l45 46q-6 4-15 11t-24 22-15 23q0 12 9 22t23 9h125q14 0 23-9t8-22v-127q0-13-8-22t-22-9z" horiz-adv-x="1024" />
<glyph glyph-name="fontserif" unicode="&#xe0b5;" d="m884 770q0 52-28 89t-67 37h-126q-39 0-67-37t-28-89v-663q0-40 37-68t90-27v-63h-379v63q52 0 89 27t37 68v663q0 52-28 89t-67 37h-126q-39 0-67-37t-28-89h-63v189h884v-189h-63z" horiz-adv-x="1024" />
<glyph glyph-name="fontsansserif" unicode="&#xe0b6;" d="m568 770v-821h-189v821h-316v189h821v-189h-316z" horiz-adv-x="1024" />
<glyph glyph-name="fontrounded" unicode="&#xe0b7;" d="m789 770h-221v-727q0-39-27-67t-67-27-67 27-28 67v727h-221q-40 0-67 27t-28 67 28 67 67 28h631q40 0 67-28t28-67-28-67-67-27z" horiz-adv-x="1024" />
<glyph glyph-name="fonthandwriting" unicode="&#xe0b8;" d="m852 770q-76 0-296-54-19-195-51-394t-63-279q-15-35-43-65t-52-29q-11 0-18 11t-10 35-3 38 0 42q0 41 8 134t23 248 22 215q-135-29-211-29-41 0-68 41t-27 83q0 35 25 50t70 16q69 0 225 22v9-8h1 1q7 44 22 73t38 30q124 0 123-63v-14q194 25 293 5 20-4 28-6t23-7 19-10 11-14 5-21q0-31-27-45t-68-14z" horiz-adv-x="1024" />
<glyph glyph-name="fonttypewriter" unicode="&#xe0b9;" d="m884 580q-27 0-45 18t-18 45v190h-253v-758h127q25 0 44-19t19-45-19-44-44-18h-379q-27 0-45 18t-18 44 18 45 45 19h126v758h-253v-190q0-26-18-45t-45-18-45 18-18 45v253q0 25 18 44t45 19h758q23 0 23-5 18-7 29-23t11-35v-253q0-26-19-45t-44-18z" horiz-adv-x="1024" />
<glyph glyph-name="fontcomic" unicode="&#xe0ba;" d="m916 706h-291q-10-86-34-221t-50-278-36-195q-32-17-99-40t-90-23q2 14 15 89t15 91 13 79 13 86 10 76 10 85 7 77 7 88 2 85q-56-4-135-19t-128-29l-50-14-32 253q170 16 379 31 85 6 211 14t210 13l84 5z" horiz-adv-x="1024" />
<glyph glyph-name="fontcaligraphy" unicode="&#xe0bb;" d="m916 833q-24 0-37-1t-33-3-34-10-29-19-25-30q-9-26-27-71t-54-125-77-160-95-166-109-151-117-107-121-41q-65 0-112 46t-46 112q0 41 16 67t47 27q28 0 46-16t17-47q0-28-16-55t-15-40 21-22 42-9 42 13 48 39 48 56 52 74 51 82 50 91 47 90 45 90 38 79 33 70q14 30 20 42-26-21-69-58t-73-61-70-50-81-39-86-13q-92 0-141 49t-49 140q0 253 347 253 48 0 109-18t124-43 87-30q94 91 186 91 39 0 67-19t27-45-27-44-67-18z m-506 63q-94 0-157-53t-64-128q0-58 24-96t71-39q39 0 185 100t183 132q-14 6-67 31t-97 39-78 14z" horiz-adv-x="1024" />
<glyph glyph-name="fontgothic" unicode="&#xe0bc;" d="m758 770v-667q133 48 189 161 0-148-102-232t-308-83q-112 0-206 54t-150 150-55 206q0 125 66 261t168 212q-26 1-44 1-127 0-253-127 0 64 50 122t139 94 190 37q71 0 125-10t80-22 64-21 78-10q36 0 79 17t79 46q0-26-12-57t-35-61-60-51-82-20z m-316 54q-25 3-33 4-72-57-114-147t-42-196q0-102 40-191t108-144l41 51v623z m63-654q-21-21-50-58 70-37 145-37 45 0 95 10v688q-42 6-127 26v-472q0-4 0-10t-4-27-10-38-18-41-31-41z" horiz-adv-x="1024" />
<glyph glyph-name="fontstencil" unicode="&#xe0bd;" d="m822 706q-12 0-27 17t-29 38-43 52-60 50q-11 8-21 29t-10 34q0 14 9 23t22 9q16 0 78 0t81 1q15 0 30-16t24-31l9-16v-126q0-26-19-45t-44-19z m-127-694q0-27-19-45t-44-18h-158-158q-26 0-45 18t-18 45q0 11 19 25t44 27 43 33 20 41v758q0 35 25 49t70 14 70-14 24-49v-758q0-22 20-41t44-33 43-27 20-25z m-411 852q-31-21-59-51t-42-52-30-38-27-17q-26 0-45 19t-18 45v126q3 7 9 17t22 28 32 18h81 77q14 0 23-9t9-23q0-13-11-35t-21-28z" horiz-adv-x="1024" />
<glyph glyph-name="moonorbit" unicode="&#xe0be;" d="m505-51q-103 0-199 41 28 21 45 50 75-28 154-28 90 0 172 35t141 94 94 141 35 172-35 171-94 142-141 94-172 35-171-35-142-94-94-142-35-171q0-79 29-154-30-18-51-46-41 96-41 200 0 102 40 196t107 161 162 108 196 40 197-40 161-108 107-161 40-196-40-197-107-161-161-107-197-40z m0 757q105 0 179-74t74-178-74-179-179-74-178 74-74 179 74 178 178 74z m-316-442q53 0 90-37t37-89-37-89-90-37-89 37-37 89 37 89 89 37z" horiz-adv-x="1024" />
<glyph glyph-name="shuttle" unicode="&#xe0bf;" d="m898 579l-12-12q-27-50-46-121t-19-150v-221q0-26-50-76t-76-50l-228 199-58-57q-10-11-23-15t-27 2-27 12-33 24-32 30l-36 36-36 36t-29 32-24 33-12 27-2 27 14 23l57 57-199 228q0 27 50 77t76 50h221q80 0 151 19t121 46l11 11q26 26 96 60t145 49 116-20q35-40 19-115t-49-145-59-96z m-140 254q-15 0-36-29t-27-34q47-24 75-52t51-75q5 7 34 28t29 35q0 53-37 90t-89 37z m-600-663q43 1 54-10t9-53q-1-47-62-103t-127-55h-32v31q0 67 56 128t102 62z" horiz-adv-x="1024" />
<glyph glyph-name="meteor" unicode="&#xe0c0;" d="m874 728q33 19 59 29t36 12l10 1q-89-91-169-155 52 12 103 19t74 8l23 1q-170-111-252-189-102-97-174-190t-93-145q-25-75-91-123t-147-47q-105 0-179 74t-74 178q0 68 34 126t89 91q38 19 82 59t78 83 65 86 46 66 16 26q-1-37-10-95 29 0 71 33t79 79 71 92 54 79l20 33q0-22-1-55t-9-101-22-97q42 57 82 120t57 97l19 36q4-7 8-19t5-46-13-61q37 26 85 58t76 50l28 18q-62-104-136-231z m-621-337q-79 0-135-56t-55-134 55-134 135-55 134 55 55 134-55 134-134 56z" horiz-adv-x="1024" />
<glyph glyph-name="galaxy" unicode="&#xe0c1;" d="m568 12q-102 0-190 51t-138 138-51 190q0 104 74 178t179 74q34 0 77-19t78-56 35-83q0-58-11-83 32 15 53 46t21 69q0 104-74 179t-179 74q-86 0-158-43t-115-115-43-158q0-124 37-225t90-154q-138 45-195 137t-58 242q0 90 35 171t94 142 141 94 172 35q103 0 190-51t138-138 51-190q0-105-74-179t-179-74q-33 0-77 19t-78 57-34 82q0 58 11 83-33-15-54-46t-20-68q0-105 74-179t178-74q86 0 159 42t115 115 42 159q0 122-37 224t-89 155q137-46 195-137t57-242q0-90-35-172t-94-141-141-94-172-35z" horiz-adv-x="1024" />
<glyph glyph-name="observatory" unicode="&#xe0c2;" d="m947 201v-126q0-27-19-45t-44-18h-758q-26 0-45 18t-18 45v126q-26 0-45 18t-18 45 18 45 45 18v190q0 130 70 237t183 162v-399q0-27 18-45t45-18v316q0 52 37 89t89 37 89-37 38-89v-316q26 0 44 18t19 45v399q113-55 183-162t69-237v-190q27 0 45-18t18-44-18-45-45-19z m-442 632q-26 0-45-19t-18-45 18-44 45-19 45 19 18 44-18 45-45 19z" horiz-adv-x="1024" />
<glyph glyph-name="astronaut" unicode="&#xe0c3;" d="m947 345q-4-207-107-302t-335-94-334 94-108 302q-28 16-46 45t-17 64v126q0 35 17 63t46 46v238q0 13 9 23t23 9 22-9 9-23v-183q59 99 160 157t219 58q131 0 239-70t161-185q45-7 75-42t30-82v-126q0-35-17-64t-46-45z m-442 551q-102 0-190-51t-138-138-51-190 51-190 138-138 190-51 190 51 138 138 51 190-51 190-138 138-190 51z m-316-379q0 86 43 158t115 115 158 43 159-43 114-115 43-158q0-37-9-65t-23-49-38-34-48-22-59-12-66-6-73-2-73 2-65 6-60 12-48 22-38 34-23 49-9 65z m311 234q-12 19-46 18t-71-19-56-45-6-43 46-18 71 19 56 44 6 44z" horiz-adv-x="1024" />
<glyph glyph-name="asteroid" unicode="&#xe0c4;" d="m558 463q-8-9-22-9t-22 9-9 22 9 22l443 443q9 9 22 9t22-9 9-23-9-21z m-189 63q-9-9-22-9t-22 9-9 22 9 22l380 380q8 9 21 9t22-9 10-23-9-21z m136-325q0-104-74-178t-178-74-179 74-74 178 74 179 179 74 178-74 74-179z m452 496q9 9 22 9t22-9 9-22-9-22l-379-380q-9-9-23-9t-22 9-9 22 9 23z" horiz-adv-x="1024" />
<glyph glyph-name="sunrise" unicode="&#xe0c5;" d="m1010 210q-95-61-94-135 1-36 4-54 90-33 90-72h-1010q0 39 92 73 3 26 3 53-2 76-95 135 252 11 135 234 224-115 235 136 59-93 135-95 74-2 135 95 11-251 235-136-116-223 135-234z m-505 181q-86 0-159-43t-115-115-42-158q0-12 1-28 30 6 64 11-1 15-1 17 0 105 74 178t178 74 179-74 74-178q0-3-1-17 33-5 63-11 1 17 1 28 0 86-42 158t-115 115-159 43z m63 379v-95q0-13-9-22t-22-10h-63q-13 0-23 10t-9 22v95h-111q-25 21-8 36l160 144q8 9 22 9t24-9l160-144q16-15-9-36h-112z" horiz-adv-x="1024" />
<glyph glyph-name="sunset" unicode="&#xe0c6;" d="m1010 210q-95-61-94-135 1-36 4-54 90-33 90-72h-1010q0 39 92 73 3 27 3 53-2 76-95 135 252 11 135 234 224-115 235 136 59-93 135-95 74-2 135 95 11-251 235-136-116-223 135-234z m-505 181q-86 0-159-43t-115-115-42-158q0-12 1-28 30 6 64 11-1 15-1 17 0 105 74 178t178 74 179-74 74-178q0-2-1-17 33-5 63-11 1 17 1 28 0 86-43 158t-114 115-159 43z m24 261q-10-9-24-9t-22 9l-160 144q-17 15 8 37h111v94q0 13 9 23t23 9h63q13 0 22-9t9-23v-94h112q25-22 9-37z" horiz-adv-x="1024" />
<glyph glyph-name="tiderise" unicode="&#xe0c7;" d="m884 376q-52 18-116 15t-124-21-129-38-130-40-130-25-129 5q-53 11-89 35t-37 51q0 29 37 42t89 4q43-18 102-15t119 20 132 38 137 41 137 25 131-5q53-11 90-35t36-51q0-29-39-45t-87-1z m-316 393v-94q0-14-9-23t-22-9h-63q-13 0-23 9t-9 23v94h-111q-25 22-8 37l160 144q8 8 22 8t24-8l160-144q16-15-9-37h-112z m-442-680q43-19 102-16t119 20 132 39 137 40 137 26 131-6q53-11 90-35t36-50q0-30-39-46t-87-1q-52 18-116 15t-124-20-129-39-130-40-130-25-129 5q-53 11-89 36t-37 51 37 42 89 4z" horiz-adv-x="1024" />
<glyph glyph-name="tidefall" unicode="&#xe0c8;" d="m884 376q-52 18-116 15t-124-21-129-38-130-40-130-25-129 5q-53 11-89 35t-37 51q0 29 37 42t89 4q43-18 102-16t119 20 132 39 137 41 137 25 131-5q53-11 90-35t36-51q0-29-39-45t-87-1z m-355 275q-10-8-24-8t-22 8l-160 144q-17 16 8 38h111v94q0 13 9 23t23 9h63q13 0 22-9t9-23v-94h112q25-23 9-38z m-403-562q43-19 102-16t119 20 132 39 137 40 137 26 131-6q53-11 90-35t36-50q0-30-39-46t-87-1q-52 18-116 15t-124-20-129-39-130-40-130-25-129 5q-53 11-89 36t-37 51 37 42 89 4z" horiz-adv-x="1024" />
<glyph glyph-name="mushroomcloud" unicode="&#xe0c9;" d="m916 580q-18 0-36 7-8-31-33-50t-58-20q-27 0-52 17-35-13-83-16-35-36-56-71 71-10 115-34t45-54q0-32-51-57t-129-34q27-131 128-204 137-15 221-46t83-69h-1010q0 38 84 69t220 46q102 74 128 204-79 9-129 34t-50 57q0 30 44 54t115 34q-20 35-56 71-1 0-4-1t-5 0q-36 0-72 18-25-18-54-18-33 0-58 20t-33 50q-18-7-35-7-40 0-67 28t-28 67q0 30 18 55t46 34q0 1 0 3t-1 3q0 52 37 89t89 37q8 0 17-1 17 28 46 46t64 18q56 0 94-43 39 43 95 43 49 0 86-35 29 35 72 35 31 0 55-18t34-46q1 0 3 0t3 1q57 0 100-36t55-90h1 2q39 0 67-28t27-67-27-67-67-28z m-478-191q-54-4-88-12t-34-18 34-18 90-12q2 29 2 30 0 12-4 30z m132-60q56 3 90 12t35 18-34 18-89 12q-4-18-4-30 0-1 2-30z" horiz-adv-x="1024" />
<glyph glyph-name="percent" unicode="&#xe001;" d="m821-51q-79 0-134 55t-55 135 55 133 134 55 134-55 55-133-55-135-134-55z m0 252q-26 0-45-18t-18-44 18-45 45-19 45 19 18 45-18 44-45 18z m-430-189q-14-27-43-45t-56-18h-127q-27 0-35 18t5 45l485 884q13 26 43 45t55 18h128q26 0 35-18t-6-45z m-202 568q-79 0-134 56t-55 134 55 134 134 55 135-55 55-134-55-134-135-56z m0 253q-26 0-44-19t-19-44 19-45 44-19 45 19 19 45-19 44-45 19z" horiz-adv-x="1024" />
<glyph glyph-name="sputnik" unicode="&#xe0cb;" d="m1001 716l-505-449q9-32 9-66 0-5-1-13t-1-8l461 270q11 6 23 2t19-15 3-23-14-19l-515-302q-19-38-42-64-114 39-217 141t-140 217q26 22 62 41l303 515q7 11 19 14t24-3 15-18-3-23l-270-461q1 0 9 1t13 1q32 0 66-9l449 505q8 9 21 9t23-9 9-23-9-21l-432-487q57-33 91-90l486 432q9 9 22 9t22-10 9-22-9-22z m-581-703q-72-64-167-64-105 0-179 74t-74 178q0 96 64 168 8-144 110-246t246-110z" horiz-adv-x="1024" />
<glyph glyph-name="sextant" unicode="&#xe0cc;" d="m947 138q-189-189-442-189t-442 189q-7 7-22 20t-22 20-13 22-6 33q0 39 28 67t67 27q15 0 31-5l258 258h-286q-8 0-15 3t-9 9-6 13-4 18-1 20v25 6 8q0 23 1 35t3 26 10 21 21 6h298q-17 29-17 63 0 52 37 89t89 37 89-37 38-89q0-34-17-63h206q6 0 11-2t8-5 5-6 4-10 2-11 1-14v-14-16-17-17-16-15t-1-13-2-12-4-9-5-7-8-4-11-2h-195l258-258q17 5 32 5 39 0 67-27t27-67q0-19-6-33t-13-22-22-20-22-20z m-505 321l-146-146q64-57 146-73v219z m0-283q-108 17-190 92l-73-73q114-97 263-116v97z m126 283v-219q82 16 146 73z m191-191q-82-74-191-92v-97q149 19 264 116z m157 312q-13 0-23 9t-9 23v126q0 13 9 22t23 10 22-10 9-22v-126q0-13-9-23t-22-9z" horiz-adv-x="1024" />
<glyph glyph-name="spock" unicode="&#xe0cd;" d="m881 749l-59-485q-6-53-18-105t-25-88-24-65-20-44-8-13h-347q-5 5-13 13t-31 34-39 48-30 50-13 44q0 38-28 120t-54 147l-27 65q-19 18-19 45t19 47 45 19 46-20q0-2 1-6t5-15 8-23 9-26 11-29 12-27 12-23 12-16 11-5l-63 431q-4 25 10 47t38 26q17 1 34 0t31-17 13-45v63q0 26 19 45t44 18 45-18 18-45l63-379q7 2 15 10t11 21l49 294q4 26 23 41t44 12 38-26 10-47v-52q22 63 63 63 36 0 53-28t6-56z" horiz-adv-x="1024" />
<glyph glyph-name="meteorite" unicode="&#xe0ce;" d="m989 307v0q32-33 15-96t-74-119q-42-43-90-64t-86-13q-116-66-249-66-98 0-188 37-2 0-6 0t-5-1q-64 0-118 42t-72 105q-115 140-115 322 0 53 11 105-25 43-2 111t85 130q77 77 161 92 116 67 249 67 104 0 197-40t161-108 107-161 40-196q0-75-21-147z m-683 517q-19 19-67-1t-97-70-70-97 0-67 67 1 97 69 69 97 1 68z m-31-560q-42 0-67-31t-17-72q6-37 36-61t66-25 60 25 25 61q0 41-30 72t-73 31z m325 253q-40 0-67-28t-28-67 28-67 67-28 67 28 28 67-28 67-67 28z m269 192q-18 37-44 53t-46 2-21-50 16-73 42-53 46-2 22 51-15 72z m65-458q-13 13-47-1t-67-48-48-66-1-47 47 1 67 48 48 66 1 47z" horiz-adv-x="1024" />
<glyph glyph-name="deathstar" unicode="&#xe0cf;" d="m997 338q-200-74-492-74t-491 74q-14 60-14 116 0 102 40 196t107 161 162 108 196 40 197-40 161-108 107-161 40-196q0-56-13-116z m-560 479q-53 28-118 7t-101-81-26-121 66-90 117-6 102 80 25 121-65 90z m-90-174q-13 0-22 10t-9 22 9 22 22 9 22-9 10-22-10-22-22-10z m642-336q-49-158-182-258t-302-100-302 100-181 258q200-106 483-106t484 106z" horiz-adv-x="1024" />
<glyph glyph-name="deathstarbuilding" unicode="&#xe0d0;" d="m884 391h-126v-64h126v-22q-165-41-379-41-135 0-252 17v46h-64-63v64h-63v-64h-18q-23 8-31 11-14 60-14 116 0 102 40 196t107 161 162 108 196 40q94 0 180-33t154-93h-144v-63h126v-64h63v-63h-126v-63h126v-63h122q4-33 4-63h-126v-63z m-447 426q-53 28-118 7t-101-81-26-121 66-90 117-6 102 80 25 121-65 90z m-90-174q-13 0-22 10t-9 22 9 22 22 9 22-9 10-22-10-22-22-10z m-221-383v-59h379q216 0 379 59v-59h-63v-63h-126v-63h63v-57l-6-3t-5-3h-52v-26q-92-37-190-37-157 0-284 87t-184 228h78q2-1 6-2t5-2z" horiz-adv-x="1024" />
<glyph glyph-name="fallingstar" unicode="&#xe0d1;" d="m396 365l-14 5-31 66q50 122 158 234t240 188 261 101v-189q-173-35-342-145t-272-260z m105-138l-122-118v-143q-2-8-10-14t-16-2l-119 74-147-50q-10-1-17 6t-9 17l30 151-89 123q-4 10 0 19t13 13l150 20 89 125q7 7 16 6t17-9l63-138 144-47q8-6 10-15t-3-18z" horiz-adv-x="1024" />
<glyph glyph-name="windmill" unicode="&#xe0d2;" d="m737 608q14-32 21-60l17-154 163-136q9-8 9-21t-9-22l-126-126 9-77q0-20-17-42t-40-21h-517q-26 0-42 18t-16 45l9 77-126 126q-9 9-9 22t9 21l162 136 19 154q6 28 20 60l-201 167q-9 9-9 22t9 22l131 131q9 9 22 9t22-9l164-197q43 17 94 17t94-17l165 197q9 9 21 9t22-9l131-131q9-9 9-22t-9-22z m-473-503l-11-93h126v158q0 12 9 22t22 9h190q13 0 22-9t10-22v-158h126l-12 93-200 240q-9 10-9 23t9 22l21 21-45 46q-9-3-17-3t-17 3l-45-46 22-21q9-9 9-22t-9-23z m136 474l-22-22q-10-9-22-9t-22 9l-5 4q-8-22-13-44l-8-62 26 21q9 9 22 9t22-9l22-21 45 45q-3 9-3 17t3 17z m146 110l8 10q-25 7-49 7t-49-7l9-10q9-10 9-23t-9-22l-22-22 44-45q10 3 18 3t17-3l45 45-21 22q-9 10-9 22t9 23z m149-172q-5 22-13 44l-5-4q-10-9-23-9t-22 9l-21 22-46-45q3-9 3-17t-3-17l46-45 21 21q9 9 22 9t23-9l25-21z" horiz-adv-x="1024" />
<glyph glyph-name="windmillalt" unicode="&#xe0d3;" d="m632 620q16-31 32-60t33-66 31-67 21-59 9-46-11-24q-12-7-35 8t-50 49-53 68-53 78q12-169 12-521 0-13-9-22t-22-9h-63q-13 0-23 9t-9 22q0 368 14 537h-46q-12 0-22 9t-9 22v36q-253 13-253 59t253 59v36q0 13 9 22t22 10h156q60 88 109 144t72 43q11-6 11-25t-9-46-21-59-31-67-33-66-32-60v-14z" horiz-adv-x="1024" />
<glyph glyph-name="pumpjack" unicode="&#xe0d4;" d="m979-51h-947q-13 0-23 9t-9 22v63q0 13 9 23t23 9h157l208 582-181 18-27-190q0-13-9-22t-22-9q-26 0-47 5t-37 12-27 20-20 26-13 32-8 35-5 40-1 40v42q0 61 36 121t86 96 99 36q13 0 22-9t10-23l-24-164 165-17q18 24 48 24 38 0 55-34l359-37q12-1 21-25t7-38v-561h95q13 0 22-9t9-23v-63q0-13-9-22t-22-9z m-354 126l-23 63h-204l113-63h114z m-343 63l-23-63h139l-114 63h-2z m23 63h238l-199 111z m254 54l-25 72h-105z m-117 328l-26-70 64-38z m-43-122l-26-70h138l-1 4z m422 154l-331 32 205-572h126v540z" horiz-adv-x="1024" />
<glyph glyph-name="nuclearplant" unicode="&#xe0d5;" d="m983 12h-231q-114 629-120 883h220q13 0 23-10t9-22q0-78 12-179t25-177 44-227 45-237q2-12-6-22t-21-9z m-316-63h-639q-14 0-22 9t-5 22q125 694 125 946 0 13 10 23t22 9h379q13 0 22-9t9-23q0-252 127-946 2-13-6-22t-22-9z" horiz-adv-x="1024" />
<glyph glyph-name="solarpanel" unicode="&#xe0d6;" d="m978 264h-277l57-284q3-16-7-24t-25-7h-442q-15 0-24 7t-7 24l57 284h-277q-16 0-26 8t-6 24l125 630q2 12 9 22t15 10h700q9 0 21-11t13-21l125-630q3-17-6-24t-25-8z m-157 631h-632l-94-568h820z m-478-316l-27-188h-158l40 188h145z m261 0l28-188h-253l27 188h198z m207 0l41-188h-157l-28 188h144z m-153 63l-26 190h126l40-190h-140z m-243 0l27 190h126l27-190h-180z m-203 0l41 190h126l-27-190h-140z" horiz-adv-x="1024" />
<glyph glyph-name="barrel" unicode="&#xe0d7;" d="m916 327q12 0 22-9t9-22-9-22-22-10h-32v-252h32q12 0 22-10t9-22-9-22-22-9h-758q-13 0-22 9t-10 22 10 22 22 10h31v252h-31q-13 0-22 10t-10 22 10 22 22 9h31v253h-31q-13 0-22 9t-10 23 10 22 22 9h31v253h-31q-13 0-22 9t-10 22 10 23 22 9h758q12 0 22-9t9-23-9-22-22-9h-32v-253h32q12 0 22-9t9-22-9-23-22-9h-32v-253h32z m-268 230l-111 149-112-149q-46-50-46-121t46-121 112-51 111 51 47 121-47 121z" horiz-adv-x="1024" />
<glyph glyph-name="canister" unicode="&#xe0d8;" d="m947 12q0-27-19-45t-44-18h-758q-26 0-45 18t-18 45v315 190 253q0 26 18 44t45 19h127q-26 0-45 18t-19 45 19 45 45 18h189q27 0 45-18t18-45-19-45-44-18h126q40 0 77-23 56 29 135 22t120-46q38-39 45-118t-21-135q23-38 23-79v-442z m-307 441q-6 1-8 1h-253q-3 0-9-1l-70 60q-11 6-24 2t-19-14-3-24 14-19l49-56q-1-7-1-11v-190q0-4 1-10l-49-57q-10-7-14-19t3-24 19-15 24 3l70 60q6-1 9-1h253q1 0 8 1l70-60q11-6 24-3t19 15 3 24-14 19l-48 57q1 6 1 10v190q0 4-1 11l48 56q11 7 14 19t-3 24-19 14-24-2z m202 274q-29 29-68 39t-73-2l177-178q11 35 2 73t-38 68z m-242-526h-190q-12 0-22 10t-9 22v126q0 13 9 22t22 10h190q13 0 22-10t10-22v-126q0-13-10-22t-22-10z" horiz-adv-x="1024" />
</font>
</defs>
</svg>
